<?xml version="1.0" encoding="utf-8"?>
<!-- Generator: Adobe Illustrator 21.1.0, SVG Export Plug-In . SVG Version: 6.00 Build 0)  -->
<svg version="1.1" id="Layer_1" xmlns="http://www.w3.org/2000/svg" xmlns:xlink="http://www.w3.org/1999/xlink" x="0px" y="0px"
	 viewBox="0 0 280 350" style="enable-background:new 0 0 280 350;" xml:space="preserve">
<style type="text/css">
	.st0{fill:#E6AF78;}
	.st1{fill:#694B4B;}
	.st2{fill:#5A4146;}
	.st3{fill:#785550;}
	.st4{fill:#B4E1FA;}
	.st5{fill:#D29B6E;}
	.st6{fill:#A0D2F0;}
	.st7{fill:#F0C087;}
	.st8{fill:#707487;}
	.st9{fill:#5B5D6E;}
	.st10{fill:#E1C3A0;}
	.st11{fill:#EBD2AF;}
	.st12{fill:#F0DCBE;}
	.st13{fill:#FFF5C8;}
</style>
<g>
	<path class="st0" d="M172.7,75.6l1.7,6.7c0.2,0.8,0.9,1.4,1.7,1.4l0,0c0.9,0,1.7-0.7,1.8-1.6l0.9-6.9c0.2-1.8-1.2-3.5-3.1-3.5l0,0
		C173.7,71.7,172.2,73.6,172.7,75.6z"/>
	<path class="st1" d="M140.2,4.4c-50.9,0-45.3,61.9-45.1,106.8c0,1.7,0.9,3.2,2.3,4.1c5.6,3.4,21.1,11.4,42.7,11.4s37.1-8,42.7-11.4
		c1.5-0.9,2.3-2.4,2.3-4.1C185.5,66.3,191.1,4.4,140.2,4.4z"/>
	<path class="st2" d="M136.9,4.5c-47.4,2.7-42,62.8-41.8,106.7c0,1.7,0.9,3.2,2.3,4.1c5.6,3.4,21.1,11.4,42.7,11.4L153,36.6"/>
	<path class="st1" d="M140.2,4.4c-29,0-31,35-31,35c16.7-2.8,27,4.2,43.8-2.8l-12.8,90.1c21.6,0,37.1-8,42.7-11.4
		c1.5-0.9,2.3-2.4,2.3-4.1C185.5,66.3,191.1,4.4,140.2,4.4z"/>
	<path class="st3" d="M185.3,111.2c0.2-38.6,4.4-89.7-26.8-103.3c-0.5,2.8-1.5,10.7,1,15.8c6.4,12.9,12.9,12.9,19.3,22.5
		c6.4,35.4-12.3,73-18.5,78.1l0,0c11-2.6,18.9-6.8,22.6-9C184.4,114.5,185.3,112.9,185.3,111.2z"/>
	<path class="st0" d="M189,121l-28.7-12c-2.4-1-4-3.3-4-5.9v-7.8h-32.2v7.8c0,2.6-1.6,4.9-4,5.9l-28.7,12c-3.6,1.5-5.9,5-5.9,8.9
		v12.9c0,3.6,2.9,6.4,6.4,6.4h96.5c3.6,0,6.4-2.9,6.4-6.4v-12.9C194.9,126,192.6,122.5,189,121z"/>
	<path class="st4" d="M189,121l-27.8-11.6l-21,9.1l-21-9.1L91.4,121c-3.6,1.5-5.9,5-5.9,8.9v12.9c0,3.6,2.9,6.4,6.4,6.4h96.5
		c3.6,0,6.4-2.9,6.4-6.4v-12.9C194.9,126,192.6,122.5,189,121z"/>
	<path class="st5" d="M156.3,95.3h-32.2v7.8c0,2.6-1.6,4.9-4,5.9l-4.5,1.9C150,119.7,156.3,95.3,156.3,95.3z"/>
	<g>
		<path class="st6" d="M101.2,133.4l-12.9-10.3c-1.7,1.8-2.8,4.2-2.8,6.7v12.9c0,3.6,2.9,6.4,6.4,6.4h12.9v-8.2
			C104.8,138.1,103.5,135.3,101.2,133.4z"/>
		<path class="st6" d="M194.9,142.8v-12.9c0-2.6-1-4.9-2.7-6.7l-13,10.2c-2.3,1.8-3.6,4.6-3.6,7.5v8.2h12.9
			C192,149.2,194.9,146.3,194.9,142.8z"/>
		<path class="st6" d="M140.2,142.8L140.2,142.8c-1.8,0-3.2-1.4-3.2-3.2v-21.1h6.4v21.1C143.4,141.3,142,142.8,140.2,142.8z"/>
		<path class="st6" d="M140.2,118.5l-18.4-13.8c-1.2-0.9-2.9-0.6-3.7,0.6l-3.6,5.5l11.3,15.8c0.9,1.2,2.6,1.4,3.7,0.5L140.2,118.5z"
			/>
		<path class="st6" d="M140.2,118.5l18.4-13.8c1.2-0.9,2.9-0.6,3.7,0.6l3.6,5.5l-11.3,15.8c-0.9,1.2-2.6,1.4-3.7,0.5L140.2,118.5z"
			/>
	</g>
	<path class="st7" d="M156.3,33.4c-16.1,16.1-47.7,3.2-47.7,29l2,19c0.4,4.2,2.8,8,6.6,10.1l18.3,10.2c2.9,1.6,6.5,1.6,9.4,0
		l18.3-10.3c3.7-2.1,6.2-5.8,6.6-10.1l2.3-22.5c0.2-1.6,0.2-3.2,0.1-4.8C171,45.8,159.5,39.8,156.3,33.4z"/>
	<path class="st0" d="M108.6,62.3l2,19c0.4,4.2,2.8,8,6.6,10.1l18.3,10.2c2,1.1,4.3,1.4,6.6,1l0,0c0,0-9.2-2.8-14.7-17.7
		c-1.7-4.6-4-28.7-2-31.6c4-5.8,26.1-6.4,32.7-17.3c-0.3-0.4-0.6-0.8-0.9-1.2c0,0,0-0.1-0.1-0.1c-0.3-0.4-0.5-0.9-0.8-1.3
		C140.2,49.5,108.6,36.6,108.6,62.3z"/>
	<path class="st6" d="M165.9,142.8H153c-1.8,0-3.2,1.4-3.2,3.2v3.2h19.4V146C169.2,144.2,167.7,142.8,165.9,142.8z"/>
</g>
<path class="st8" d="M51.9,160.4c-2.4,0-4.4-2-4.4-4.4v-45.7c0-5.9,2.3-11.4,6.5-15.6l8.1-8.1c1.7-1.7,4.5-1.7,6.2,0s1.7,4.5,0,6.2
	l-8.1,8.2c-2.5,2.5-3.9,5.8-3.9,9.4v45.7C56.3,158.4,54.4,160.4,51.9,160.4z"/>
<path class="st9" d="M65.2,98.6c-2.3,0-4.5-0.9-6.2-2.6c-3.4-3.4-3.4-9,0-12.5l4.4-4.4c3.4-3.4,9-3.4,12.5,0s3.4,9,0,12.5L71.5,96
	C69.7,97.7,67.4,98.6,65.2,98.6z"/>
<path class="st10" d="M222.4,226.6H58c-3.7,0-7-2.3-8.3-5.7L25.4,156h229.5l-24.3,64.9C229.3,224.3,226,226.6,222.4,226.6z"/>
<path class="st11" d="M210.8,473.8H69.6V191.3c0-4.9,4-8.8,8.8-8.8H202c4.9,0,8.8,4,8.8,8.8V473.8z"/>
<path class="st12" d="M228.5,509.1H51.9c-4.9,0-8.8-4-8.8-8.8v-26.5c0-4.9,4-8.8,8.8-8.8h176.6c4.9,0,8.8,4,8.8,8.8v26.5
	C237.3,505.1,233.4,509.1,228.5,509.1z"/>
<path class="st13" d="M166.7,244.3h-53c-4.9,0-8.8-4-8.8-8.8v-17.7c0-4.9,4-8.8,8.8-8.8h53c4.9,0,8.8,4,8.8,8.8v17.6
	C175.5,240.3,171.6,244.3,166.7,244.3z"/>
<path class="st12" d="M246.1,147.2H34.3c-4.9,0-8.8,4-8.8,8.8l0,0c0,4.9,4,8.8,8.8,8.8h211.9c4.9,0,8.8-4,8.8-8.8l0,0
	C255,151.1,251,147.2,246.1,147.2z"/>
</svg>
