<?xml version="1.0" encoding="utf-8"?>
<!-- Generator: Adobe Illustrator 21.1.0, SVG Export Plug-In . SVG Version: 6.00 Build 0)  -->
<svg version="1.1" id="Layer_1" xmlns="http://www.w3.org/2000/svg" xmlns:xlink="http://www.w3.org/1999/xlink" x="0px" y="0px"
	 viewBox="0 0 1280 800" style="enable-background:new 0 0 1280 800;" xml:space="preserve">
<style type="text/css">
	.st0{fill:url(#SVGID_1_);}
	.st1{opacity:0.3;}
	.st2{fill:none;stroke:#EAEAEA;stroke-miterlimit:10;}
	.st3{fill:none;}
	.st4{fill:#FFFFFF;}
	.st5{opacity:0.6;fill:none;stroke:url(#SVGID_2_);stroke-width:2;stroke-miterlimit:10;enable-background:new    ;}
	.st6{fill:#FFFFFF;stroke:#FFFFFF;stroke-miterlimit:10;}
</style>
<linearGradient id="SVGID_1_" gradientUnits="userSpaceOnUse" x1="241.508" y1="1191.1057" x2="1038.4921" y2="52.8943" gradientTransform="matrix(1 0 0 1 0 -222)">
	<stop  offset="0" style="stop-color:#A6FAF9;stop-opacity:0.5"/>
	<stop  offset="0.1077" style="stop-color:#A0E4EF;stop-opacity:0.6034"/>
	<stop  offset="0.2349" style="stop-color:#9BD2E7;stop-opacity:0.7254"/>
	<stop  offset="0.3691" style="stop-color:#98C7E2;stop-opacity:0.8542"/>
	<stop  offset="0.521" style="stop-color:#97C4E0"/>
	<stop  offset="0.6499" style="stop-color:#98C8E2;stop-opacity:0.8655"/>
	<stop  offset="0.7773" style="stop-color:#9BD4E7;stop-opacity:0.7325"/>
	<stop  offset="0.9036" style="stop-color:#A1E8F0;stop-opacity:0.6006"/>
	<stop  offset="1" style="stop-color:#A6FCF9;stop-opacity:0.5"/>
</linearGradient>
<polygon class="st0" points="1280,0 772.7,0.1 0,0 0,800 1280,800 "/>
<g class="st1">
	<g>
		<g>
			<g>
				<rect x="383.2" y="-229.9" class="st2" width="75.8" height="129.3"/>
				<rect x="459.1" y="-229.9" class="st2" width="75.8" height="129.3"/>
				<rect x="534.9" y="-229.9" class="st2" width="75.8" height="129.3"/>
				<rect x="383.2" y="-100.6" class="st2" width="75.8" height="129.3"/>
				<rect x="459.1" y="-100.6" class="st2" width="75.8" height="129.3"/>
				<rect x="534.9" y="-100.6" class="st2" width="75.8" height="129.3"/>
				<rect x="383.2" y="28.8" class="st2" width="75.8" height="129.3"/>
				<rect x="459.1" y="28.8" class="st2" width="75.8" height="129.3"/>
				<rect x="534.9" y="28.8" class="st2" width="75.8" height="129.3"/>
				<polygon class="st2" points="383.2,-229.9 610.8,-358.9 610.8,-229.6 383.2,-100.6 				"/>
				<rect x="383.2" y="-100.6" class="st2" width="227.5" height="129.3"/>
				<polygon class="st2" points="383.2,28.8 610.8,-100.2 610.8,29.1 383.2,158.1 				"/>
			</g>
			<g>
				<rect x="534.9" y="-229.9" class="st2" width="75.8" height="129.3"/>
				<rect x="459.1" y="-229.9" class="st2" width="75.8" height="129.3"/>
				<rect x="383.2" y="-229.9" class="st2" width="75.8" height="129.3"/>
				<rect x="534.9" y="-100.6" class="st2" width="75.8" height="129.3"/>
				<rect x="459.1" y="-100.6" class="st2" width="75.8" height="129.3"/>
				<rect x="383.2" y="-100.6" class="st2" width="75.8" height="129.3"/>
				<rect x="534.9" y="28.8" class="st2" width="75.8" height="129.3"/>
				<rect x="459.1" y="28.8" class="st2" width="75.8" height="129.3"/>
				<rect x="383.2" y="28.8" class="st2" width="75.8" height="129.3"/>
				<polygon class="st2" points="610.8,-229.9 383.2,-358.9 383.2,-229.6 610.8,-100.6 				"/>
				<rect x="383.2" y="-100.6" class="st2" width="227.5" height="129.3"/>
				<polygon class="st2" points="610.8,28.8 383.2,-100.2 383.2,29.1 610.8,158.1 				"/>
			</g>
		</g>
		<g>
			<g>
				<rect x="383.2" y="158.1" class="st2" width="75.8" height="129.3"/>
				<rect x="459.1" y="158.1" class="st2" width="75.8" height="129.3"/>
				<rect x="534.9" y="158.1" class="st2" width="75.8" height="129.3"/>
				<rect x="383.2" y="287.4" class="st2" width="75.8" height="129.3"/>
				<rect x="459.1" y="287.4" class="st2" width="75.8" height="129.3"/>
				<rect x="534.9" y="287.4" class="st2" width="75.8" height="129.3"/>
				<rect x="383.2" y="416.8" class="st2" width="75.8" height="129.3"/>
				<rect x="459.1" y="416.8" class="st2" width="75.8" height="129.3"/>
				<rect x="534.9" y="416.8" class="st2" width="75.8" height="129.3"/>
				<polygon class="st2" points="383.2,158.1 610.8,29.1 610.8,158.4 383.2,287.4 				"/>
				<rect x="383.2" y="287.4" class="st2" width="227.5" height="129.3"/>
				<polygon class="st2" points="383.2,416.8 610.8,287.8 610.8,417.1 383.2,546.1 				"/>
			</g>
			<g>
				<rect x="534.9" y="158.1" class="st2" width="75.8" height="129.3"/>
				<rect x="459.1" y="158.1" class="st2" width="75.8" height="129.3"/>
				<rect x="383.2" y="158.1" class="st2" width="75.8" height="129.3"/>
				<rect x="534.9" y="287.4" class="st2" width="75.8" height="129.3"/>
				<rect x="459.1" y="287.4" class="st2" width="75.8" height="129.3"/>
				<rect x="383.2" y="287.4" class="st2" width="75.8" height="129.3"/>
				<rect x="534.9" y="416.8" class="st2" width="75.8" height="129.3"/>
				<rect x="459.1" y="416.8" class="st2" width="75.8" height="129.3"/>
				<rect x="383.2" y="416.8" class="st2" width="75.8" height="129.3"/>
				<polygon class="st2" points="610.8,158.1 383.2,29.1 383.2,158.4 610.8,287.4 				"/>
				<rect x="383.2" y="287.4" class="st2" width="227.5" height="129.3"/>
				<polygon class="st2" points="610.8,416.8 383.2,287.8 383.2,417.1 610.8,546.1 				"/>
			</g>
		</g>
		<g>
			<g>
				<rect x="383.2" y="546.1" class="st2" width="75.8" height="129.3"/>
				<rect x="459.1" y="546.1" class="st2" width="75.8" height="129.3"/>
				<rect x="534.9" y="546.1" class="st2" width="75.8" height="129.3"/>
				<rect x="383.2" y="675.4" class="st2" width="75.8" height="129.3"/>
				<rect x="459.1" y="675.4" class="st2" width="75.8" height="129.3"/>
				<rect x="534.9" y="675.4" class="st2" width="75.8" height="129.3"/>
				<rect x="383.2" y="804.8" class="st2" width="75.8" height="129.3"/>
				<rect x="459.1" y="804.8" class="st2" width="75.8" height="129.3"/>
				<rect x="534.9" y="804.8" class="st2" width="75.8" height="129.3"/>
				<polygon class="st2" points="383.2,546.1 610.8,417.1 610.8,546.4 383.2,675.4 				"/>
				<rect x="383.2" y="675.4" class="st2" width="227.5" height="129.3"/>
				<polygon class="st2" points="383.2,804.8 610.8,675.8 610.8,805.1 383.2,934.1 				"/>
			</g>
			<g>
				<rect x="534.9" y="546.1" class="st2" width="75.8" height="129.3"/>
				<rect x="459.1" y="546.1" class="st2" width="75.8" height="129.3"/>
				<rect x="383.2" y="546.1" class="st2" width="75.8" height="129.3"/>
				<rect x="534.9" y="675.4" class="st2" width="75.8" height="129.3"/>
				<rect x="459.1" y="675.4" class="st2" width="75.8" height="129.3"/>
				<rect x="383.2" y="675.4" class="st2" width="75.8" height="129.3"/>
				<rect x="534.9" y="804.8" class="st2" width="75.8" height="129.3"/>
				<rect x="459.1" y="804.8" class="st2" width="75.8" height="129.3"/>
				<rect x="383.2" y="804.8" class="st2" width="75.8" height="129.3"/>
				<polygon class="st2" points="610.8,546.1 383.2,417.1 383.2,546.4 610.8,675.4 				"/>
				<rect x="383.2" y="675.4" class="st2" width="227.5" height="129.3"/>
				<polygon class="st2" points="610.8,804.8 383.2,675.8 383.2,805.1 610.8,934.1 				"/>
			</g>
		</g>
	</g>
	<g>
		<g>
			<g>
				<rect x="155.8" y="-230.1" class="st2" width="75.8" height="129.3"/>
				<rect x="231.6" y="-230.1" class="st2" width="75.8" height="129.3"/>
				<rect x="307.4" y="-230.1" class="st2" width="75.8" height="129.3"/>
				<rect x="155.8" y="-100.8" class="st2" width="75.8" height="129.3"/>
				<rect x="231.6" y="-100.8" class="st2" width="75.8" height="129.3"/>
				<rect x="307.4" y="-100.8" class="st2" width="75.8" height="129.3"/>
				<rect x="155.8" y="28.6" class="st2" width="75.8" height="129.3"/>
				<rect x="231.6" y="28.6" class="st2" width="75.8" height="129.3"/>
				<rect x="307.4" y="28.6" class="st2" width="75.8" height="129.3"/>
				<polygon class="st2" points="155.8,-230.1 383.2,-359.1 383.2,-229.8 155.8,-100.8 				"/>
				<rect x="155.8" y="-100.8" class="st2" width="227.5" height="129.3"/>
				<polygon class="st2" points="155.8,28.6 383.2,-100.4 383.2,28.9 155.8,157.9 				"/>
			</g>
			<g>
				<rect x="307.4" y="-230.1" class="st2" width="75.8" height="129.3"/>
				<rect x="231.6" y="-230.1" class="st2" width="75.8" height="129.3"/>
				<rect x="155.8" y="-230.1" class="st2" width="75.8" height="129.3"/>
				<rect x="307.4" y="-100.8" class="st2" width="75.8" height="129.3"/>
				<rect x="231.6" y="-100.8" class="st2" width="75.8" height="129.3"/>
				<rect x="155.8" y="-100.8" class="st2" width="75.8" height="129.3"/>
				<rect x="307.4" y="28.6" class="st2" width="75.8" height="129.3"/>
				<rect x="231.6" y="28.6" class="st2" width="75.8" height="129.3"/>
				<rect x="155.8" y="28.6" class="st2" width="75.8" height="129.3"/>
				<polygon class="st2" points="383.2,-230.1 155.8,-359.1 155.8,-229.8 383.2,-100.8 				"/>
				<rect x="155.8" y="-100.8" class="st2" width="227.5" height="129.3"/>
				<polygon class="st2" points="383.2,28.6 155.8,-100.4 155.8,28.9 383.2,157.9 				"/>
			</g>
		</g>
		<g>
			<g>
				<rect x="155.8" y="157.9" class="st2" width="75.8" height="129.3"/>
				<rect x="231.6" y="157.9" class="st2" width="75.8" height="129.3"/>
				<rect x="307.4" y="157.9" class="st2" width="75.8" height="129.3"/>
				<rect x="155.8" y="287.2" class="st2" width="75.8" height="129.3"/>
				<rect x="231.6" y="287.2" class="st2" width="75.8" height="129.3"/>
				<rect x="307.4" y="287.2" class="st2" width="75.8" height="129.3"/>
				<rect x="155.8" y="416.6" class="st2" width="75.8" height="129.3"/>
				<rect x="231.6" y="416.6" class="st2" width="75.8" height="129.3"/>
				<rect x="307.4" y="416.6" class="st2" width="75.8" height="129.3"/>
				<polygon class="st2" points="155.8,157.9 383.2,28.9 383.2,158.2 155.8,287.2 				"/>
				<rect x="155.8" y="287.2" class="st2" width="227.5" height="129.3"/>
				<polygon class="st2" points="155.8,416.6 383.2,287.6 383.2,416.9 155.8,545.9 				"/>
			</g>
			<g>
				<rect x="307.4" y="157.9" class="st2" width="75.8" height="129.3"/>
				<rect x="231.6" y="157.9" class="st2" width="75.8" height="129.3"/>
				<rect x="155.8" y="157.9" class="st2" width="75.8" height="129.3"/>
				<rect x="307.4" y="287.2" class="st2" width="75.8" height="129.3"/>
				<rect x="231.6" y="287.2" class="st2" width="75.8" height="129.3"/>
				<rect x="155.8" y="287.2" class="st2" width="75.8" height="129.3"/>
				<rect x="307.4" y="416.6" class="st2" width="75.8" height="129.3"/>
				<rect x="231.6" y="416.6" class="st2" width="75.8" height="129.3"/>
				<rect x="155.8" y="416.6" class="st2" width="75.8" height="129.3"/>
				<polygon class="st2" points="383.2,157.9 155.8,28.9 155.8,158.2 383.2,287.2 				"/>
				<rect x="155.8" y="287.2" class="st2" width="227.5" height="129.3"/>
				<polygon class="st2" points="383.2,416.6 155.8,287.6 155.8,416.9 383.2,545.9 				"/>
			</g>
		</g>
		<g>
			<g>
				<rect x="155.8" y="545.9" class="st2" width="75.8" height="129.3"/>
				<rect x="231.6" y="545.9" class="st2" width="75.8" height="129.3"/>
				<rect x="307.4" y="545.9" class="st2" width="75.8" height="129.3"/>
				<rect x="155.8" y="675.2" class="st2" width="75.8" height="129.3"/>
				<rect x="231.6" y="675.2" class="st2" width="75.8" height="129.3"/>
				<rect x="307.4" y="675.2" class="st2" width="75.8" height="129.3"/>
				<rect x="155.8" y="804.6" class="st2" width="75.8" height="129.3"/>
				<rect x="231.6" y="804.6" class="st2" width="75.8" height="129.3"/>
				<rect x="307.4" y="804.6" class="st2" width="75.8" height="129.3"/>
				<polygon class="st2" points="155.8,545.9 383.2,416.9 383.2,546.2 155.8,675.2 				"/>
				<rect x="155.8" y="675.2" class="st2" width="227.5" height="129.3"/>
				<polygon class="st2" points="155.8,804.6 383.2,675.6 383.2,804.9 155.8,933.9 				"/>
			</g>
			<g>
				<rect x="307.4" y="545.9" class="st2" width="75.8" height="129.3"/>
				<rect x="231.6" y="545.9" class="st2" width="75.8" height="129.3"/>
				<rect x="155.8" y="545.9" class="st2" width="75.8" height="129.3"/>
				<rect x="307.4" y="675.2" class="st2" width="75.8" height="129.3"/>
				<rect x="231.6" y="675.2" class="st2" width="75.8" height="129.3"/>
				<rect x="155.8" y="675.2" class="st2" width="75.8" height="129.3"/>
				<rect x="307.4" y="804.6" class="st2" width="75.8" height="129.3"/>
				<rect x="231.6" y="804.6" class="st2" width="75.8" height="129.3"/>
				<rect x="155.8" y="804.6" class="st2" width="75.8" height="129.3"/>
				<polygon class="st2" points="383.2,545.9 155.8,416.9 155.8,546.2 383.2,675.2 				"/>
				<rect x="155.8" y="675.2" class="st2" width="227.5" height="129.3"/>
				<polygon class="st2" points="383.2,804.6 155.8,675.6 155.8,804.9 383.2,933.9 				"/>
			</g>
		</g>
	</g>
	<g>
		<g>
			<g>
				<rect x="838.2" y="-230.2" class="st2" width="75.8" height="129.3"/>
				<rect x="914.1" y="-230.2" class="st2" width="75.8" height="129.3"/>
				<rect x="989.9" y="-230.2" class="st2" width="75.8" height="129.3"/>
				<rect x="838.2" y="-100.8" class="st2" width="75.8" height="129.3"/>
				<rect x="914.1" y="-100.8" class="st2" width="75.8" height="129.3"/>
				<rect x="989.9" y="-100.8" class="st2" width="75.8" height="129.3"/>
				<rect x="838.2" y="28.5" class="st2" width="75.8" height="129.3"/>
				<rect x="914.1" y="28.5" class="st2" width="75.8" height="129.3"/>
				<rect x="989.9" y="28.5" class="st2" width="75.8" height="129.3"/>
				<polygon class="st2" points="838.2,-230.2 1065.8,-359.2 1065.8,-229.8 838.2,-100.8 				"/>
				<rect x="838.2" y="-100.8" class="st2" width="227.5" height="129.3"/>
				<polygon class="st2" points="838.2,28.5 1065.8,-100.5 1065.8,28.8 838.2,157.8 				"/>
			</g>
			<g>
				<rect x="989.9" y="-230.2" class="st2" width="75.8" height="129.3"/>
				<rect x="914.1" y="-230.2" class="st2" width="75.8" height="129.3"/>
				<rect x="838.2" y="-230.2" class="st2" width="75.8" height="129.3"/>
				<rect x="989.9" y="-100.8" class="st2" width="75.8" height="129.3"/>
				<rect x="914.1" y="-100.8" class="st2" width="75.8" height="129.3"/>
				<rect x="838.2" y="-100.8" class="st2" width="75.8" height="129.3"/>
				<rect x="989.9" y="28.5" class="st2" width="75.8" height="129.3"/>
				<rect x="914.1" y="28.5" class="st2" width="75.8" height="129.3"/>
				<rect x="838.2" y="28.5" class="st2" width="75.8" height="129.3"/>
				<polygon class="st2" points="1065.8,-230.2 838.2,-359.2 838.2,-229.8 1065.8,-100.8 				"/>
				<rect x="838.2" y="-100.8" class="st2" width="227.5" height="129.3"/>
				<polygon class="st2" points="1065.8,28.5 838.2,-100.5 838.2,28.8 1065.8,157.8 				"/>
			</g>
		</g>
		<g>
			<g>
				<rect x="838.2" y="157.8" class="st2" width="75.8" height="129.3"/>
				<rect x="914.1" y="157.8" class="st2" width="75.8" height="129.3"/>
				<rect x="989.9" y="157.8" class="st2" width="75.8" height="129.3"/>
				<rect x="838.2" y="287.2" class="st2" width="75.8" height="129.3"/>
				<rect x="914.1" y="287.2" class="st2" width="75.8" height="129.3"/>
				<rect x="989.9" y="287.2" class="st2" width="75.8" height="129.3"/>
				<rect x="838.2" y="416.5" class="st2" width="75.8" height="129.3"/>
				<rect x="914.1" y="416.5" class="st2" width="75.8" height="129.3"/>
				<rect x="989.9" y="416.5" class="st2" width="75.8" height="129.3"/>
				<polygon class="st2" points="838.2,157.8 1065.8,28.8 1065.8,158.2 838.2,287.2 				"/>
				<rect x="838.2" y="287.2" class="st2" width="227.5" height="129.3"/>
				<polygon class="st2" points="838.2,416.5 1065.8,287.5 1065.8,416.8 838.2,545.8 				"/>
			</g>
			<g>
				<rect x="989.9" y="157.8" class="st2" width="75.8" height="129.3"/>
				<rect x="914.1" y="157.8" class="st2" width="75.8" height="129.3"/>
				<rect x="838.2" y="157.8" class="st2" width="75.8" height="129.3"/>
				<rect x="989.9" y="287.2" class="st2" width="75.8" height="129.3"/>
				<rect x="914.1" y="287.2" class="st2" width="75.8" height="129.3"/>
				<rect x="838.2" y="287.2" class="st2" width="75.8" height="129.3"/>
				<rect x="989.9" y="416.5" class="st2" width="75.8" height="129.3"/>
				<rect x="914.1" y="416.5" class="st2" width="75.8" height="129.3"/>
				<rect x="838.2" y="416.5" class="st2" width="75.8" height="129.3"/>
				<polygon class="st2" points="1065.8,157.8 838.2,28.8 838.2,158.2 1065.8,287.2 				"/>
				<rect x="838.2" y="287.2" class="st2" width="227.5" height="129.3"/>
				<polygon class="st2" points="1065.8,416.5 838.2,287.5 838.2,416.8 1065.8,545.8 				"/>
			</g>
		</g>
		<g>
			<g>
				<rect x="838.2" y="545.8" class="st2" width="75.8" height="129.3"/>
				<rect x="914.1" y="545.8" class="st2" width="75.8" height="129.3"/>
				<rect x="989.9" y="545.8" class="st2" width="75.8" height="129.3"/>
				<rect x="838.2" y="675.2" class="st2" width="75.8" height="129.3"/>
				<rect x="914.1" y="675.2" class="st2" width="75.8" height="129.3"/>
				<rect x="989.9" y="675.2" class="st2" width="75.8" height="129.3"/>
				<rect x="838.2" y="804.5" class="st2" width="75.8" height="129.3"/>
				<rect x="914.1" y="804.5" class="st2" width="75.8" height="129.3"/>
				<rect x="989.9" y="804.5" class="st2" width="75.8" height="129.3"/>
				<polygon class="st2" points="838.2,545.8 1065.8,416.8 1065.8,546.2 838.2,675.2 				"/>
				<rect x="838.2" y="675.2" class="st2" width="227.5" height="129.3"/>
				<polygon class="st2" points="838.2,804.5 1065.8,675.5 1065.8,804.8 838.2,933.8 				"/>
			</g>
			<g>
				<rect x="989.9" y="545.8" class="st2" width="75.8" height="129.3"/>
				<rect x="914.1" y="545.8" class="st2" width="75.8" height="129.3"/>
				<rect x="838.2" y="545.8" class="st2" width="75.8" height="129.3"/>
				<rect x="989.9" y="675.2" class="st2" width="75.8" height="129.3"/>
				<rect x="914.1" y="675.2" class="st2" width="75.8" height="129.3"/>
				<rect x="838.2" y="675.2" class="st2" width="75.8" height="129.3"/>
				<rect x="989.9" y="804.5" class="st2" width="75.8" height="129.3"/>
				<rect x="914.1" y="804.5" class="st2" width="75.8" height="129.3"/>
				<rect x="838.2" y="804.5" class="st2" width="75.8" height="129.3"/>
				<polygon class="st2" points="1065.8,545.8 838.2,416.8 838.2,546.2 1065.8,675.2 				"/>
				<rect x="838.2" y="675.2" class="st2" width="227.5" height="129.3"/>
				<polygon class="st2" points="1065.8,804.5 838.2,675.5 838.2,804.8 1065.8,933.8 				"/>
			</g>
		</g>
	</g>
	<g>
		<g>
			<g>
				<rect x="610.8" y="-230.3" class="st2" width="75.8" height="129.3"/>
				<rect x="686.6" y="-230.3" class="st2" width="75.8" height="129.3"/>
				<rect x="762.4" y="-230.3" class="st2" width="75.8" height="129.3"/>
				<rect x="610.8" y="-101" class="st2" width="75.8" height="129.3"/>
				<rect x="686.6" y="-101" class="st2" width="75.8" height="129.3"/>
				<rect x="762.4" y="-101" class="st2" width="75.8" height="129.3"/>
				<rect x="610.8" y="28.3" class="st2" width="75.8" height="129.3"/>
				<rect x="686.6" y="28.3" class="st2" width="75.8" height="129.3"/>
				<rect x="762.4" y="28.3" class="st2" width="75.8" height="129.3"/>
				<polygon class="st2" points="610.8,-230.3 838.2,-359.3 838.2,-230 610.8,-101 				"/>
				<rect x="610.8" y="-101" class="st2" width="227.5" height="129.3"/>
				<polygon class="st2" points="610.8,28.3 838.2,-100.7 838.2,28.7 610.8,157.7 				"/>
			</g>
			<g>
				<rect x="762.4" y="-230.3" class="st2" width="75.8" height="129.3"/>
				<rect x="686.6" y="-230.3" class="st2" width="75.8" height="129.3"/>
				<rect x="610.8" y="-230.3" class="st2" width="75.8" height="129.3"/>
				<rect x="762.4" y="-101" class="st2" width="75.8" height="129.3"/>
				<rect x="686.6" y="-101" class="st2" width="75.8" height="129.3"/>
				<rect x="610.8" y="-101" class="st2" width="75.8" height="129.3"/>
				<rect x="762.4" y="28.3" class="st2" width="75.8" height="129.3"/>
				<rect x="686.6" y="28.3" class="st2" width="75.8" height="129.3"/>
				<rect x="610.8" y="28.3" class="st2" width="75.8" height="129.3"/>
				<polygon class="st2" points="838.2,-230.3 610.8,-359.3 610.8,-230 838.2,-101 				"/>
				<rect x="610.8" y="-101" class="st2" width="227.5" height="129.3"/>
				<polygon class="st2" points="838.2,28.3 610.8,-100.7 610.8,28.7 838.2,157.7 				"/>
			</g>
		</g>
		<g>
			<g>
				<rect x="610.8" y="157.7" class="st2" width="75.8" height="129.3"/>
				<rect x="686.6" y="157.7" class="st2" width="75.8" height="129.3"/>
				<rect x="762.4" y="157.7" class="st2" width="75.8" height="129.3"/>
				<rect x="610.8" y="287" class="st2" width="75.8" height="129.3"/>
				<rect x="686.6" y="287" class="st2" width="75.8" height="129.3"/>
				<rect x="762.4" y="287" class="st2" width="75.8" height="129.3"/>
				<rect x="610.8" y="416.3" class="st2" width="75.8" height="129.3"/>
				<rect x="686.6" y="416.3" class="st2" width="75.8" height="129.3"/>
				<rect x="762.4" y="416.3" class="st2" width="75.8" height="129.3"/>
				<polygon class="st2" points="610.8,157.7 838.2,28.7 838.2,158 610.8,287 				"/>
				<rect x="610.8" y="287" class="st2" width="227.5" height="129.3"/>
				<polygon class="st2" points="610.8,416.3 838.2,287.3 838.2,416.7 610.8,545.7 				"/>
			</g>
			<g>
				<rect x="762.4" y="157.7" class="st2" width="75.8" height="129.3"/>
				<rect x="686.6" y="157.7" class="st2" width="75.8" height="129.3"/>
				<rect x="610.8" y="157.7" class="st2" width="75.8" height="129.3"/>
				<rect x="762.4" y="287" class="st2" width="75.8" height="129.3"/>
				<rect x="686.6" y="287" class="st2" width="75.8" height="129.3"/>
				<rect x="610.8" y="287" class="st2" width="75.8" height="129.3"/>
				<rect x="762.4" y="416.3" class="st2" width="75.8" height="129.3"/>
				<rect x="686.6" y="416.3" class="st2" width="75.8" height="129.3"/>
				<rect x="610.8" y="416.3" class="st2" width="75.8" height="129.3"/>
				<polygon class="st2" points="838.2,157.7 610.8,28.7 610.8,158 838.2,287 				"/>
				<rect x="610.8" y="287" class="st2" width="227.5" height="129.3"/>
				<polygon class="st2" points="838.2,416.3 610.8,287.3 610.8,416.7 838.2,545.7 				"/>
			</g>
		</g>
		<g>
			<g>
				<rect x="610.8" y="545.7" class="st2" width="75.8" height="129.3"/>
				<rect x="686.6" y="545.7" class="st2" width="75.8" height="129.3"/>
				<rect x="762.4" y="545.7" class="st2" width="75.8" height="129.3"/>
				<rect x="610.8" y="675" class="st2" width="75.8" height="129.3"/>
				<rect x="686.6" y="675" class="st2" width="75.8" height="129.3"/>
				<rect x="762.4" y="675" class="st2" width="75.8" height="129.3"/>
				<rect x="610.8" y="804.3" class="st2" width="75.8" height="129.3"/>
				<rect x="686.6" y="804.3" class="st2" width="75.8" height="129.3"/>
				<rect x="762.4" y="804.3" class="st2" width="75.8" height="129.3"/>
				<polygon class="st2" points="610.8,545.7 838.2,416.7 838.2,546 610.8,675 				"/>
				<rect x="610.8" y="675" class="st2" width="227.5" height="129.3"/>
				<polygon class="st2" points="610.8,804.3 838.2,675.3 838.2,804.7 610.8,933.7 				"/>
			</g>
			<g>
				<rect x="762.4" y="545.7" class="st2" width="75.8" height="129.3"/>
				<rect x="686.6" y="545.7" class="st2" width="75.8" height="129.3"/>
				<rect x="610.8" y="545.7" class="st2" width="75.8" height="129.3"/>
				<rect x="762.4" y="675" class="st2" width="75.8" height="129.3"/>
				<rect x="686.6" y="675" class="st2" width="75.8" height="129.3"/>
				<rect x="610.8" y="675" class="st2" width="75.8" height="129.3"/>
				<rect x="762.4" y="804.3" class="st2" width="75.8" height="129.3"/>
				<rect x="686.6" y="804.3" class="st2" width="75.8" height="129.3"/>
				<rect x="610.8" y="804.3" class="st2" width="75.8" height="129.3"/>
				<polygon class="st2" points="838.2,545.7 610.8,416.7 610.8,546 838.2,675 				"/>
				<rect x="610.8" y="675" class="st2" width="227.5" height="129.3"/>
				<polygon class="st2" points="838.2,804.3 610.8,675.3 610.8,804.7 838.2,933.7 				"/>
			</g>
		</g>
	</g>
	<g>
		<g>
			<g>
				<rect x="1293.2" y="-229.4" class="st2" width="75.8" height="129.3"/>
				<rect x="1369.1" y="-229.4" class="st2" width="75.8" height="129.3"/>
				<rect x="1444.9" y="-229.4" class="st2" width="75.8" height="129.3"/>
				<rect x="1293.2" y="-100" class="st2" width="75.8" height="129.3"/>
				<rect x="1369.1" y="-100" class="st2" width="75.8" height="129.3"/>
				<rect x="1444.9" y="-100" class="st2" width="75.8" height="129.3"/>
				<rect x="1293.2" y="29.3" class="st2" width="75.8" height="129.3"/>
				<rect x="1369.1" y="29.3" class="st2" width="75.8" height="129.3"/>
				<rect x="1444.9" y="29.3" class="st2" width="75.8" height="129.3"/>
				<polygon class="st2" points="1293.2,-229.4 1520.8,-358.4 1520.8,-229 1293.2,-100 				"/>
				<rect x="1293.2" y="-100" class="st2" width="227.5" height="129.3"/>
				<polygon class="st2" points="1293.2,29.3 1520.8,-99.7 1520.8,29.6 1293.2,158.6 				"/>
			</g>
			<g>
				<rect x="1444.9" y="-229.4" class="st2" width="75.8" height="129.3"/>
				<rect x="1369.1" y="-229.4" class="st2" width="75.8" height="129.3"/>
				<rect x="1293.2" y="-229.4" class="st2" width="75.8" height="129.3"/>
				<rect x="1444.9" y="-100" class="st2" width="75.8" height="129.3"/>
				<rect x="1369.1" y="-100" class="st2" width="75.8" height="129.3"/>
				<rect x="1293.2" y="-100" class="st2" width="75.8" height="129.3"/>
				<rect x="1444.9" y="29.3" class="st2" width="75.8" height="129.3"/>
				<rect x="1369.1" y="29.3" class="st2" width="75.8" height="129.3"/>
				<rect x="1293.2" y="29.3" class="st2" width="75.8" height="129.3"/>
				<polygon class="st2" points="1520.8,-229.4 1293.2,-358.4 1293.2,-229 1520.8,-100 				"/>
				<rect x="1293.2" y="-100" class="st2" width="227.5" height="129.3"/>
				<polygon class="st2" points="1520.8,29.3 1293.2,-99.7 1293.2,29.6 1520.8,158.6 				"/>
			</g>
		</g>
		<g>
			<g>
				<rect x="1293.2" y="158.6" class="st2" width="75.8" height="129.3"/>
				<rect x="1369.1" y="158.6" class="st2" width="75.8" height="129.3"/>
				<rect x="1444.9" y="158.6" class="st2" width="75.8" height="129.3"/>
				<rect x="1293.2" y="288" class="st2" width="75.8" height="129.3"/>
				<rect x="1369.1" y="288" class="st2" width="75.8" height="129.3"/>
				<rect x="1444.9" y="288" class="st2" width="75.8" height="129.3"/>
				<rect x="1293.2" y="417.3" class="st2" width="75.8" height="129.3"/>
				<rect x="1369.1" y="417.3" class="st2" width="75.8" height="129.3"/>
				<rect x="1444.9" y="417.3" class="st2" width="75.8" height="129.3"/>
				<polygon class="st2" points="1293.2,158.6 1520.8,29.6 1520.8,159 1293.2,288 				"/>
				<rect x="1293.2" y="288" class="st2" width="227.5" height="129.3"/>
				<polygon class="st2" points="1293.2,417.3 1520.8,288.3 1520.8,417.6 1293.2,546.6 				"/>
			</g>
			<g>
				<rect x="1444.9" y="158.6" class="st2" width="75.8" height="129.3"/>
				<rect x="1369.1" y="158.6" class="st2" width="75.8" height="129.3"/>
				<rect x="1293.2" y="158.6" class="st2" width="75.8" height="129.3"/>
				<rect x="1444.9" y="288" class="st2" width="75.8" height="129.3"/>
				<rect x="1369.1" y="288" class="st2" width="75.8" height="129.3"/>
				<rect x="1293.2" y="288" class="st2" width="75.8" height="129.3"/>
				<rect x="1444.9" y="417.3" class="st2" width="75.8" height="129.3"/>
				<rect x="1369.1" y="417.3" class="st2" width="75.8" height="129.3"/>
				<rect x="1293.2" y="417.3" class="st2" width="75.8" height="129.3"/>
				<polygon class="st2" points="1520.8,158.6 1293.2,29.6 1293.2,159 1520.8,288 				"/>
				<rect x="1293.2" y="288" class="st2" width="227.5" height="129.3"/>
				<polygon class="st2" points="1520.8,417.3 1293.2,288.3 1293.2,417.6 1520.8,546.6 				"/>
			</g>
		</g>
		<g>
			<g>
				<rect x="1293.2" y="546.6" class="st2" width="75.8" height="129.3"/>
				<rect x="1369.1" y="546.6" class="st2" width="75.8" height="129.3"/>
				<rect x="1444.9" y="546.6" class="st2" width="75.8" height="129.3"/>
				<rect x="1293.2" y="676" class="st2" width="75.8" height="129.3"/>
				<rect x="1369.1" y="676" class="st2" width="75.8" height="129.3"/>
				<rect x="1444.9" y="676" class="st2" width="75.8" height="129.3"/>
				<rect x="1293.2" y="805.3" class="st2" width="75.8" height="129.3"/>
				<rect x="1369.1" y="805.3" class="st2" width="75.8" height="129.3"/>
				<rect x="1444.9" y="805.3" class="st2" width="75.8" height="129.3"/>
				<polygon class="st2" points="1293.2,546.6 1520.8,417.6 1520.8,547 1293.2,676 				"/>
				<rect x="1293.2" y="676" class="st2" width="227.5" height="129.3"/>
				<polygon class="st2" points="1293.2,805.3 1520.8,676.3 1520.8,805.6 1293.2,934.6 				"/>
			</g>
			<g>
				<rect x="1444.9" y="546.6" class="st2" width="75.8" height="129.3"/>
				<rect x="1369.1" y="546.6" class="st2" width="75.8" height="129.3"/>
				<rect x="1293.2" y="546.6" class="st2" width="75.8" height="129.3"/>
				<rect x="1444.9" y="676" class="st2" width="75.8" height="129.3"/>
				<rect x="1369.1" y="676" class="st2" width="75.8" height="129.3"/>
				<rect x="1293.2" y="676" class="st2" width="75.8" height="129.3"/>
				<rect x="1444.9" y="805.3" class="st2" width="75.8" height="129.3"/>
				<rect x="1369.1" y="805.3" class="st2" width="75.8" height="129.3"/>
				<rect x="1293.2" y="805.3" class="st2" width="75.8" height="129.3"/>
				<polygon class="st2" points="1520.8,546.6 1293.2,417.6 1293.2,547 1520.8,676 				"/>
				<rect x="1293.2" y="676" class="st2" width="227.5" height="129.3"/>
				<polygon class="st2" points="1520.8,805.3 1293.2,676.3 1293.2,805.6 1520.8,934.6 				"/>
			</g>
		</g>
	</g>
	<g>
		<g>
			<g>
				<rect x="1065.8" y="-230.2" class="st2" width="75.8" height="129.3"/>
				<rect x="1141.6" y="-230.2" class="st2" width="75.8" height="129.3"/>
				<rect x="1217.4" y="-230.2" class="st2" width="75.8" height="129.3"/>
				<rect x="1065.8" y="-100.8" class="st2" width="75.8" height="129.3"/>
				<rect x="1141.6" y="-100.8" class="st2" width="75.8" height="129.3"/>
				<rect x="1217.4" y="-100.8" class="st2" width="75.8" height="129.3"/>
				<rect x="1065.8" y="28.5" class="st2" width="75.8" height="129.3"/>
				<rect x="1141.6" y="28.5" class="st2" width="75.8" height="129.3"/>
				<rect x="1217.4" y="28.5" class="st2" width="75.8" height="129.3"/>
				<polygon class="st2" points="1065.8,-230.2 1293.2,-359.2 1293.2,-229.8 1065.8,-100.8 				"/>
				<rect x="1065.8" y="-100.8" class="st2" width="227.5" height="129.3"/>
				<polygon class="st2" points="1065.8,28.5 1293.2,-100.5 1293.2,28.8 1065.8,157.8 				"/>
			</g>
			<g>
				<rect x="1217.4" y="-230.2" class="st2" width="75.8" height="129.3"/>
				<rect x="1141.6" y="-230.2" class="st2" width="75.8" height="129.3"/>
				<rect x="1065.8" y="-230.2" class="st2" width="75.8" height="129.3"/>
				<rect x="1217.4" y="-100.8" class="st2" width="75.8" height="129.3"/>
				<rect x="1141.6" y="-100.8" class="st2" width="75.8" height="129.3"/>
				<rect x="1065.8" y="-100.8" class="st2" width="75.8" height="129.3"/>
				<rect x="1217.4" y="28.5" class="st2" width="75.8" height="129.3"/>
				<rect x="1141.6" y="28.5" class="st2" width="75.8" height="129.3"/>
				<rect x="1065.8" y="28.5" class="st2" width="75.8" height="129.3"/>
				<polygon class="st2" points="1293.2,-230.2 1065.8,-359.2 1065.8,-229.8 1293.2,-100.8 				"/>
				<rect x="1065.8" y="-100.8" class="st2" width="227.5" height="129.3"/>
				<polygon class="st2" points="1293.2,28.5 1065.8,-100.5 1065.8,28.8 1293.2,157.8 				"/>
			</g>
		</g>
		<g>
			<g>
				<rect x="1065.8" y="157.8" class="st2" width="75.8" height="129.3"/>
				<rect x="1141.6" y="157.8" class="st2" width="75.8" height="129.3"/>
				<rect x="1217.4" y="157.8" class="st2" width="75.8" height="129.3"/>
				<rect x="1065.8" y="287.2" class="st2" width="75.8" height="129.3"/>
				<rect x="1141.6" y="287.2" class="st2" width="75.8" height="129.3"/>
				<rect x="1217.4" y="287.2" class="st2" width="75.8" height="129.3"/>
				<rect x="1065.8" y="416.5" class="st2" width="75.8" height="129.3"/>
				<rect x="1141.6" y="416.5" class="st2" width="75.8" height="129.3"/>
				<rect x="1217.4" y="416.5" class="st2" width="75.8" height="129.3"/>
				<polygon class="st2" points="1065.8,157.8 1293.2,28.8 1293.2,158.2 1065.8,287.2 				"/>
				<rect x="1065.8" y="287.2" class="st2" width="227.5" height="129.3"/>
				<polygon class="st2" points="1065.8,416.5 1293.2,287.5 1293.2,416.8 1065.8,545.8 				"/>
			</g>
			<g>
				<rect x="1217.4" y="157.8" class="st2" width="75.8" height="129.3"/>
				<rect x="1141.6" y="157.8" class="st2" width="75.8" height="129.3"/>
				<rect x="1065.8" y="157.8" class="st2" width="75.8" height="129.3"/>
				<rect x="1217.4" y="287.2" class="st2" width="75.8" height="129.3"/>
				<rect x="1141.6" y="287.2" class="st2" width="75.8" height="129.3"/>
				<rect x="1065.8" y="287.2" class="st2" width="75.8" height="129.3"/>
				<rect x="1217.4" y="416.5" class="st2" width="75.8" height="129.3"/>
				<rect x="1141.6" y="416.5" class="st2" width="75.8" height="129.3"/>
				<rect x="1065.8" y="416.5" class="st2" width="75.8" height="129.3"/>
				<polygon class="st2" points="1293.2,157.8 1065.8,28.8 1065.8,158.2 1293.2,287.2 				"/>
				<rect x="1065.8" y="287.2" class="st2" width="227.5" height="129.3"/>
				<polygon class="st2" points="1293.2,416.5 1065.8,287.5 1065.8,416.8 1293.2,545.8 				"/>
			</g>
		</g>
		<g>
			<g>
				<rect x="1065.8" y="545.8" class="st2" width="75.8" height="129.3"/>
				<rect x="1141.6" y="545.8" class="st2" width="75.8" height="129.3"/>
				<rect x="1217.4" y="545.8" class="st2" width="75.8" height="129.3"/>
				<rect x="1065.8" y="675.2" class="st2" width="75.8" height="129.3"/>
				<rect x="1141.6" y="675.2" class="st2" width="75.8" height="129.3"/>
				<rect x="1217.4" y="675.2" class="st2" width="75.8" height="129.3"/>
				<rect x="1065.8" y="804.5" class="st2" width="75.8" height="129.3"/>
				<rect x="1141.6" y="804.5" class="st2" width="75.8" height="129.3"/>
				<rect x="1217.4" y="804.5" class="st2" width="75.8" height="129.3"/>
				<polygon class="st2" points="1065.8,545.8 1293.2,416.8 1293.2,546.2 1065.8,675.2 				"/>
				<rect x="1065.8" y="675.2" class="st2" width="227.5" height="129.3"/>
				<polygon class="st2" points="1065.8,804.5 1293.2,675.5 1293.2,804.8 1065.8,933.8 				"/>
			</g>
			<g>
				<rect x="1217.4" y="545.8" class="st2" width="75.8" height="129.3"/>
				<rect x="1141.6" y="545.8" class="st2" width="75.8" height="129.3"/>
				<rect x="1065.8" y="545.8" class="st2" width="75.8" height="129.3"/>
				<rect x="1217.4" y="675.2" class="st2" width="75.8" height="129.3"/>
				<rect x="1141.6" y="675.2" class="st2" width="75.8" height="129.3"/>
				<rect x="1065.8" y="675.2" class="st2" width="75.8" height="129.3"/>
				<rect x="1217.4" y="804.5" class="st2" width="75.8" height="129.3"/>
				<rect x="1141.6" y="804.5" class="st2" width="75.8" height="129.3"/>
				<rect x="1065.8" y="804.5" class="st2" width="75.8" height="129.3"/>
				<polygon class="st2" points="1293.2,545.8 1065.8,416.8 1065.8,546.2 1293.2,675.2 				"/>
				<rect x="1065.8" y="675.2" class="st2" width="227.5" height="129.3"/>
				<polygon class="st2" points="1293.2,804.5 1065.8,675.5 1065.8,804.8 1293.2,933.8 				"/>
			</g>
		</g>
	</g>
	<g>
		<g>
			<g>
				<rect x="-71.8" y="-230.2" class="st2" width="75.8" height="129.3"/>
				<rect x="4.1" y="-230.2" class="st2" width="75.8" height="129.3"/>
				<rect x="79.9" y="-230.2" class="st2" width="75.8" height="129.3"/>
				<rect x="-71.8" y="-100.8" class="st2" width="75.8" height="129.3"/>
				<rect x="4.1" y="-100.8" class="st2" width="75.8" height="129.3"/>
				<rect x="79.9" y="-100.8" class="st2" width="75.8" height="129.3"/>
				<rect x="-71.8" y="28.5" class="st2" width="75.8" height="129.3"/>
				<rect x="4.1" y="28.5" class="st2" width="75.8" height="129.3"/>
				<rect x="79.9" y="28.5" class="st2" width="75.8" height="129.3"/>
				<polygon class="st2" points="-71.8,-230.2 155.8,-359.2 155.8,-229.8 -71.8,-100.8 				"/>
				<rect x="-71.8" y="-100.8" class="st2" width="227.5" height="129.3"/>
				<polygon class="st2" points="-71.8,28.5 155.8,-100.5 155.8,28.8 -71.8,157.8 				"/>
			</g>
			<g>
				<rect x="79.9" y="-230.2" class="st2" width="75.8" height="129.3"/>
				<rect x="4.1" y="-230.2" class="st2" width="75.8" height="129.3"/>
				<rect x="-71.8" y="-230.2" class="st2" width="75.8" height="129.3"/>
				<rect x="79.9" y="-100.8" class="st2" width="75.8" height="129.3"/>
				<rect x="4.1" y="-100.8" class="st2" width="75.8" height="129.3"/>
				<rect x="-71.8" y="-100.8" class="st2" width="75.8" height="129.3"/>
				<rect x="79.9" y="28.5" class="st2" width="75.8" height="129.3"/>
				<rect x="4.1" y="28.5" class="st2" width="75.8" height="129.3"/>
				<rect x="-71.8" y="28.5" class="st2" width="75.8" height="129.3"/>
				<polygon class="st2" points="155.8,-230.2 -71.8,-359.2 -71.8,-229.8 155.8,-100.8 				"/>
				<rect x="-71.8" y="-100.8" class="st2" width="227.5" height="129.3"/>
				<polygon class="st2" points="155.8,28.5 -71.8,-100.5 -71.8,28.8 155.8,157.8 				"/>
			</g>
		</g>
		<g>
			<g>
				<rect x="-71.8" y="157.8" class="st2" width="75.8" height="129.3"/>
				<rect x="4.1" y="157.8" class="st2" width="75.8" height="129.3"/>
				<rect x="79.9" y="157.8" class="st2" width="75.8" height="129.3"/>
				<rect x="-71.8" y="287.2" class="st2" width="75.8" height="129.3"/>
				<rect x="4.1" y="287.2" class="st2" width="75.8" height="129.3"/>
				<rect x="79.9" y="287.2" class="st2" width="75.8" height="129.3"/>
				<rect x="-71.8" y="416.5" class="st2" width="75.8" height="129.3"/>
				<rect x="4.1" y="416.5" class="st2" width="75.8" height="129.3"/>
				<rect x="79.9" y="416.5" class="st2" width="75.8" height="129.3"/>
				<polygon class="st2" points="-71.8,157.8 155.8,28.8 155.8,158.2 -71.8,287.2 				"/>
				<rect x="-71.8" y="287.2" class="st2" width="227.5" height="129.3"/>
				<polygon class="st2" points="-71.8,416.5 155.8,287.5 155.8,416.8 -71.8,545.8 				"/>
			</g>
			<g>
				<rect x="79.9" y="157.8" class="st2" width="75.8" height="129.3"/>
				<rect x="4.1" y="157.8" class="st2" width="75.8" height="129.3"/>
				<rect x="-71.8" y="157.8" class="st2" width="75.8" height="129.3"/>
				<rect x="79.9" y="287.2" class="st2" width="75.8" height="129.3"/>
				<rect x="4.1" y="287.2" class="st2" width="75.8" height="129.3"/>
				<rect x="-71.8" y="287.2" class="st2" width="75.8" height="129.3"/>
				<rect x="79.9" y="416.5" class="st2" width="75.8" height="129.3"/>
				<rect x="4.1" y="416.5" class="st2" width="75.8" height="129.3"/>
				<rect x="-71.8" y="416.5" class="st2" width="75.8" height="129.3"/>
				<polygon class="st2" points="155.8,157.8 -71.8,28.8 -71.8,158.2 155.8,287.2 				"/>
				<rect x="-71.8" y="287.2" class="st2" width="227.5" height="129.3"/>
				<polygon class="st2" points="155.8,416.5 -71.8,287.5 -71.8,416.8 155.8,545.8 				"/>
			</g>
		</g>
		<g>
			<g>
				<rect x="-71.8" y="545.8" class="st2" width="75.8" height="129.3"/>
				<rect x="4.1" y="545.8" class="st2" width="75.8" height="129.3"/>
				<rect x="79.9" y="545.8" class="st2" width="75.8" height="129.3"/>
				<rect x="-71.8" y="675.2" class="st2" width="75.8" height="129.3"/>
				<rect x="4.1" y="675.2" class="st2" width="75.8" height="129.3"/>
				<rect x="79.9" y="675.2" class="st2" width="75.8" height="129.3"/>
				<rect x="-71.8" y="804.5" class="st2" width="75.8" height="129.3"/>
				<rect x="4.1" y="804.5" class="st2" width="75.8" height="129.3"/>
				<rect x="79.9" y="804.5" class="st2" width="75.8" height="129.3"/>
				<polygon class="st2" points="-71.8,545.8 155.8,416.8 155.8,546.2 -71.8,675.2 				"/>
				<rect x="-71.8" y="675.2" class="st2" width="227.5" height="129.3"/>
				<polygon class="st2" points="-71.8,804.5 155.8,675.5 155.8,804.8 -71.8,933.8 				"/>
			</g>
			<g>
				<rect x="79.9" y="545.8" class="st2" width="75.8" height="129.3"/>
				<rect x="4.1" y="545.8" class="st2" width="75.8" height="129.3"/>
				<rect x="-71.8" y="545.8" class="st2" width="75.8" height="129.3"/>
				<rect x="79.9" y="675.2" class="st2" width="75.8" height="129.3"/>
				<rect x="4.1" y="675.2" class="st2" width="75.8" height="129.3"/>
				<rect x="-71.8" y="675.2" class="st2" width="75.8" height="129.3"/>
				<rect x="79.9" y="804.5" class="st2" width="75.8" height="129.3"/>
				<rect x="4.1" y="804.5" class="st2" width="75.8" height="129.3"/>
				<rect x="-71.8" y="804.5" class="st2" width="75.8" height="129.3"/>
				<polygon class="st2" points="155.8,545.8 -71.8,416.8 -71.8,546.2 155.8,675.2 				"/>
				<rect x="-71.8" y="675.2" class="st2" width="227.5" height="129.3"/>
				<polygon class="st2" points="155.8,804.5 -71.8,675.5 -71.8,804.8 155.8,933.8 				"/>
			</g>
		</g>
	</g>
</g>
<rect x="244" y="270.1" class="st3" width="791.9" height="93.9"/>
<g>
	<g>
		<path class="st4" d="M185.6,485.2l-87-42.1c-2.6-1.2-5.7-0.2-6.9,2.4l-18,37.2c-1.2,2.6-0.2,5.7,2.4,6.9l87,42.1
			c2.6,1.2,5.7,0.2,6.9-2.4l18-37.2C189.2,489.6,188.2,486.5,185.6,485.2z M166.7,527.7c-0.4,0.7-1.3,1-2,0.7l-87-42.1
			c-0.7-0.4-1-1.3-0.7-2l18-37.2c0.4-0.7,1.3-1.1,2-0.7l87,42.1c0.7,0.4,1.1,1.3,0.7,2L166.7,527.7L166.7,527.7z"/>
		<path class="st4" d="M100,458.1l3.3,1.6c0.9,0.4,2,0.1,2.5-0.9c0.4-0.9,0.1-2-0.9-2.5l-3.3-1.6c-0.9-0.4-2-0.1-2.5,0.9
			C98.7,456.6,99,457.7,100,458.1z"/>
		<path class="st4" d="M109.9,463l3.3,1.6c0.9,0.4,2,0.1,2.5-0.9c0.4-0.9,0.1-2-0.9-2.5l-3.3-1.6c-0.9-0.4-2-0.1-2.5,0.9
			C108.6,461.4,109,462.5,109.9,463z"/>
		<path class="st4" d="M119.9,467.8l3.3,1.6c0.9,0.4,2,0.1,2.5-0.9c0.4-0.9,0.1-2-0.9-2.5l-3.3-1.6c-0.9-0.4-2-0.1-2.5,0.9
			C118.6,466.3,119,467.4,119.9,467.8z"/>
		<path class="st4" d="M129.9,472.6l3.3,1.6c0.9,0.4,2,0.1,2.5-0.9c0.4-0.9,0.1-2-0.9-2.5l-3.3-1.6c-0.9-0.4-2-0.1-2.5,0.9
			C128.6,471.1,129,472.2,129.9,472.6z"/>
		<path class="st4" d="M139.8,477.4l3.3,1.6c0.9,0.4,2,0.1,2.5-0.9c0.4-0.9,0.1-2-0.9-2.5l-3.3-1.6c-0.9-0.4-2-0.1-2.5,0.9
			C138.5,475.9,138.9,477,139.8,477.4z"/>
		<path class="st4" d="M154.7,480.5l-3.3-1.6c-0.9-0.4-2-0.1-2.5,0.9s-0.1,2,0.9,2.5l3.3,1.6c0.9,0.4,2,0.1,2.5-0.9
			S155.6,481,154.7,480.5z"/>
		<path class="st4" d="M159.8,487.1l3.3,1.6c0.9,0.4,2,0.1,2.5-0.9c0.4-0.9,0.1-2-0.9-2.5l-3.3-1.6c-0.9-0.4-2-0.1-2.5,0.9
			C158.5,485.5,158.9,486.6,159.8,487.1z"/>
		<path class="st4" d="M174.7,490.2l-3.3-1.6c-0.9-0.4-2-0.1-2.5,0.9c-0.4,0.9-0.1,2,0.9,2.5l3.3,1.6c0.9,0.4,2,0.1,2.5-0.9
			C176,491.7,175.6,490.6,174.7,490.2z"/>
		<path class="st4" d="M96.7,464.8l3.3,1.6c0.9,0.4,2,0.1,2.5-0.9c0.4-0.9,0.1-2-0.9-2.5l-3.3-1.6c-0.9-0.4-2-0.1-2.5,0.9
			C95.4,463.2,95.8,464.3,96.7,464.8z"/>
		<path class="st4" d="M106.7,469.6l3.3,1.6c0.9,0.4,2,0.1,2.5-0.9s0.1-2-0.9-2.5l-3.3-1.6c-0.9-0.4-2-0.1-2.5,0.9
			C105.4,468.1,105.8,469.2,106.7,469.6z"/>
		<path class="st4" d="M116.7,474.4l3.3,1.6c0.9,0.4,2,0.1,2.5-0.9c0.4-0.9,0.1-2-0.9-2.5l-3.3-1.6c-0.9-0.4-2-0.1-2.5,0.9
			C115.4,472.9,115.8,474,116.7,474.4z"/>
		<path class="st4" d="M126.7,479.3l3.3,1.6c0.9,0.4,2,0.1,2.5-0.9c0.4-0.9,0.1-2-0.9-2.5l-3.3-1.6c-0.9-0.4-2-0.1-2.5,0.9
			C125.4,477.7,125.8,478.8,126.7,479.3z"/>
		<path class="st4" d="M136.6,484.1l3.3,1.6c0.9,0.4,2,0.1,2.5-0.9s0.1-2-0.9-2.5l-3.3-1.6c-0.9-0.4-2-0.1-2.5,0.9
			C135.3,482.5,135.7,483.6,136.6,484.1z"/>
		<path class="st4" d="M151.5,487.2l-3.3-1.6c-0.9-0.4-2-0.1-2.5,0.9c-0.4,0.9-0.1,2,0.9,2.5l3.3,1.6c0.9,0.4,2,0.1,2.5-0.9
			C152.8,488.7,152.4,487.6,151.5,487.2z"/>
		<path class="st4" d="M156.6,493.7l3.3,1.6c0.9,0.4,2,0.1,2.5-0.9c0.4-0.9,0.1-2-0.9-2.5l-3.3-1.6c-0.9-0.4-2-0.1-2.5,0.9
			C155.3,492.2,155.7,493.3,156.6,493.7z"/>
		<path class="st4" d="M171.4,496.8l-3.3-1.6c-0.9-0.4-2-0.1-2.5,0.9c-0.4,0.9-0.1,2,0.9,2.5l3.3,1.6c0.9,0.4,2,0.1,2.5-0.9
			C172.7,498.4,172.4,497.3,171.4,496.8z"/>
		<path class="st4" d="M92,483l-3.3-1.6c-0.9-0.4-2-0.1-2.5,0.9s-0.1,2,0.9,2.5l3.3,1.6c0.9,0.4,2,0.1,2.5-0.9
			C93.3,484.5,92.9,483.4,92,483z"/>
		<path class="st4" d="M102,487.8l-3.3-1.6c-0.9-0.4-2-0.1-2.5,0.9c-0.4,0.9-0.1,2,0.9,2.5l3.3,1.6c0.9,0.4,2,0.1,2.5-0.9
			C103.3,489.3,102.9,488.2,102,487.8z"/>
		<path class="st4" d="M151.8,511.9l-3.3-1.6c-0.9-0.4-2-0.1-2.5,0.9c-0.4,0.9-0.1,2,0.9,2.5l3.3,1.6c0.9,0.4,2,0.1,2.5-0.9
			S152.7,512.4,151.8,511.9z"/>
		<path class="st4" d="M161.8,516.8l-3.3-1.6c-0.9-0.4-2-0.1-2.5,0.9c-0.4,0.9-0.1,2,0.9,2.5l3.3,1.6c0.9,0.4,2,0.1,2.5-0.9
			C163.1,518.3,162.7,517.2,161.8,516.8z"/>
		<path class="st4" d="M113.5,481.1l3.3,1.6c0.9,0.4,2,0.1,2.5-0.9c0.4-0.9,0.1-2-0.9-2.5l-3.3-1.6c-0.9-0.4-2-0.1-2.5,0.9
			S112.6,480.6,113.5,481.1z"/>
		<path class="st4" d="M123.5,485.9l3.3,1.6c0.9,0.4,2,0.1,2.5-0.9c0.4-0.9,0.1-2-0.9-2.5l-3.3-1.6c-0.9-0.4-2-0.1-2.5,0.9
			C122.2,484.4,122.6,485.5,123.5,485.9z"/>
		<path class="st4" d="M133.4,490.7l3.3,1.6c0.9,0.4,2,0.1,2.5-0.9c0.4-0.9,0.1-2-0.9-2.5l-3.3-1.6c-0.9-0.4-2-0.1-2.5,0.9
			C132.1,489.2,132.5,490.3,133.4,490.7z"/>
		<path class="st4" d="M148.2,493.8l-3.3-1.6c-0.9-0.4-2-0.1-2.5,0.9c-0.4,0.9-0.1,2,0.9,2.5l3.3,1.6c0.9,0.4,2,0.1,2.5-0.9
			C149.5,495.3,149.2,494.2,148.2,493.8z"/>
		<path class="st4" d="M110.3,487.7l3.3,1.6c0.9,0.4,2,0.1,2.5-0.9s0.1-2-0.9-2.5l-3.3-1.6c-0.9-0.4-2-0.1-2.5,0.9
			C109,486.2,109.4,487.3,110.3,487.7z"/>
		<path class="st4" d="M120.3,492.6l3.3,1.6c0.9,0.4,2,0.1,2.5-0.9s0.1-2-0.9-2.5l-3.3-1.6c-0.9-0.4-2-0.1-2.5,0.9
			C119,491,119.3,492.1,120.3,492.6z"/>
		<path class="st4" d="M130.2,497.4l3.3,1.6c0.9,0.4,2,0.1,2.5-0.9c0.4-0.9,0.1-2-0.9-2.5l-3.3-1.6c-0.9-0.4-2-0.1-2.5,0.9
			S129.3,496.9,130.2,497.4z"/>
		<path class="st4" d="M145,500.4l-3.3-1.6c-0.9-0.4-2-0.1-2.5,0.9c-0.4,0.9-0.1,2,0.9,2.5l3.3,1.6c0.9,0.4,2,0.1,2.5-0.9
			C146.3,502,145.9,500.9,145,500.4z"/>
		<path class="st4" d="M108.5,474.6l-13.3-6.5c-0.9-0.4-2-0.1-2.5,0.9c-0.4,0.9-0.1,2,0.9,2.5l13.3,6.5c0.9,0.4,2,0.1,2.5-0.9
			S109.4,475,108.5,474.6z"/>
		<path class="st4" d="M105.3,481.2l-13.4-6.5c-0.9-0.4-2-0.1-2.5,0.9s-0.1,2,0.9,2.5l13.3,6.5c0.9,0.4,2,0.1,2.5-0.9
			C106.6,482.7,106.2,481.6,105.3,481.2z"/>
		<path class="st4" d="M168.2,503.5l-13.2-6.4c-0.9-0.4-2-0.1-2.5,0.9c-0.4,0.9-0.1,2,0.9,2.5l13.2,6.4c0.9,0.4,2,0.1,2.5-0.9
			C169.5,505,169.1,503.9,168.2,503.5z"/>
		<path class="st4" d="M165,510.1l-13.2-6.4c-0.9-0.4-2-0.1-2.5,0.9c-0.4,0.9-0.1,2,0.9,2.5l13.2,6.4c0.9,0.4,2,0.1,2.5-0.9
			C166.3,511.7,165.9,510.6,165,510.1z"/>
		<path class="st4" d="M141.8,507.1l-33.1-16c-0.9-0.4-2-0.1-2.5,0.9c-0.4,0.9-0.1,2,0.9,2.5l33.1,16c0.9,0.4,2,0.1,2.5-0.9
			S142.7,507.5,141.8,507.1z"/>
	</g>
	
		<linearGradient id="SVGID_2_" gradientUnits="userSpaceOnUse" x1="142.3441" y1="600.2252" x2="1174.2213" y2="600.2252" gradientTransform="matrix(1 0 0 1 0 -222)">
		<stop  offset="0" style="stop-color:#FFFFFF"/>
		<stop  offset="0.4825" style="stop-color:#FFFFFF;stop-opacity:0.5"/>
		<stop  offset="1" style="stop-color:#FFFFFF"/>
	</linearGradient>
	<path class="st5" d="M1173.4,318.3c0,0-73.3-90.7-187.9-29.1c-105.1,56.4-246.5,292.9-426.2,159C297,238.3,191.9,428.3,142.9,465"
		/>
	<path class="st6" d="M1174.9,316.7l-3.8,1.7c-7.8,3.6-10.9,12.7-7.2,20.8l9.3,20.2c3.7,8.1,12.7,11.6,20.5,8.1l3.8-1.7
		c7.9-3.6,11.4-13.1,7.8-21l-9.3-20.2C1192.3,316.6,1182.9,313.1,1174.9,316.7z M1176.7,325.1l0.3-0.1c0.5-0.2,1,0,1.2,0.4l2.7,5.9
		c0.2,0.5,0,1-0.4,1.2l-0.3,0.1c-0.5,0.2-1,0-1.2-0.4l-2.7-5.9C1176,325.8,1176.2,325.3,1176.7,325.1z M1203.3,345.6
		c3.2,6.9,0.1,15.1-6.8,18.3l-3.8,1.7c-6.7,3.1-14.5,0-17.7-7l-9.3-20.2c-3.2-7-0.5-14.9,6.2-18l1.2-0.6l1.8,3.9
		c-0.9,0.8-1.3,2.2-0.7,3.5l2.7,5.9c0.6,1.2,1.8,1.9,3.1,1.7l2.2,4.8c0.2,0.5,0.9,0.7,1.4,0.5s0.7-0.9,0.5-1.4l-2.2-4.8
		c1-0.8,1.3-2.3,0.7-3.5l-2.7-5.9c-0.6-1.2-1.8-1.9-3.1-1.7l-1.8-3.9l0.7-0.3c6.9-3.2,15.1-0.1,18.3,6.8L1203.3,345.6z"/>
</g>
</svg>
