<?xml version="1.0" encoding="utf-8"?>
<!-- Generator: Adobe Illustrator 21.1.0, SVG Export Plug-In . SVG Version: 6.00 Build 0)  -->
<svg version="1.1" id="Layer_1" xmlns="http://www.w3.org/2000/svg" xmlns:xlink="http://www.w3.org/1999/xlink" x="0px" y="0px"
	 viewBox="0 0 247.2 335.4" style="enable-background:new 0 0 247.2 335.4;" xml:space="preserve">
<style type="text/css">
	.st0{fill:#FFF5C8;}
	.st1{fill:#707487;}
	.st2{fill:#FFFAE1;}
	.st3{fill:#FFFFFF;}
	.st4{fill:#C7CFE2;}
	.st5{fill:#FAEBAA;}
	.st6{fill:#AFB9D2;}
</style>
<path class="st0" d="M247.2,123.6C247.2,50.7,184-7.5,109.4,0.8C54,6.9,8.6,51.2,1.1,106.5C-5.9,159.3,20.4,206.7,62,230.6
	c10.8,6.2,17.4,17.9,17.4,30.4v3.8h88.3V261c0-12.5,6.6-24.1,17.4-30.4C222.2,209.3,247.2,169.4,247.2,123.6z"/>
<path class="st1" d="M141.2,335.4h-35.3c-3.3,0-6.4-1.9-7.9-4.9l-6.4-12.8h63.9l-6.4,12.8C147.6,333.6,144.6,335.4,141.2,335.4z"/>
<circle class="st2" cx="123.6" cy="123.6" r="97.1"/>
<path class="st3" d="M158.9,150.1H88.3c-4.9,0-8.8-4-8.8-8.8s3.9-8.8,8.8-8.8h70.6c4.9,0,8.8,4,8.8,8.8
	C167.7,146.1,163.8,150.1,158.9,150.1z"/>
<path class="st4" d="M167.5,143.4c1.2-4.7-1.7-9.5-6.4-10.7c-4.7-1.2-9.5,1.7-10.7,6.4l-17.7,70.6c-0.2,0.7-0.3,1.4-0.3,2.1v70.6
	h-17.7v-70.6c0-0.7-0.1-1.4-0.3-2.1l-17.7-70.6c-1.2-4.7-6-7.6-10.7-6.4c-4.7,1.2-7.6,6-6.4,10.7l17.4,69.6v69.5h-4.4
	c-4.9,0-8.8,4-8.8,8.8s4,8.8,8.8,8.8c-4.9,0-8.8,4-8.8,8.8s4,8.8,8.8,8.8h61.8c4.9,0,8.8-4,8.8-8.8s-4-8.8-8.8-8.8
	c4.9,0,8.8-4,8.8-8.8s-4-8.8-8.8-8.8h-4.4v-69.5L167.5,143.4z"/>
<path class="st5" d="M132.4,264.8h-17.7v-53c0-4.9,4-8.8,8.8-8.8l0,0c4.9,0,8.8,4,8.8,8.8L132.4,264.8L132.4,264.8z"/>
<path class="st6" d="M153.4,282.5H93.7c-3.3,0-6.4-1.9-7.9-4.9l-6.4-12.8h88.3l-6.4,12.8C159.8,280.6,156.8,282.5,153.4,282.5z"/>
</svg>
