<?xml version="1.0" encoding="utf-8"?>
<!-- Generator: Adobe Illustrator 21.1.0, SVG Export Plug-In . SVG Version: 6.00 Build 0)  -->
<svg version="1.1" id="Layer_1" xmlns="http://www.w3.org/2000/svg" xmlns:xlink="http://www.w3.org/1999/xlink" x="0px" y="0px"
	 viewBox="0 0 435.3 342" style="enable-background:new 0 0 435.3 342;" xml:space="preserve">
<style type="text/css">
	.st0{clip-path:url(#SVGID_2_);fill:#B2E1E8;}
	.st1{clip-path:url(#SVGID_2_);}
</style>
<image style="display:none;overflow:visible;" width="514" height="402" xlink:href="CFA5487458152810.png"  transform="matrix(1 0 0 1 -28.4886 -20.988)">
</image>
<g>
	<defs>
		<rect id="SVGID_1_" x="0.1" y="2.9" width="435" height="336.2"/>
	</defs>
	<clipPath id="SVGID_2_">
		<use xlink:href="#SVGID_1_"  style="overflow:visible;"/>
	</clipPath>
	<polygon class="st0" points="388.9,-10.9 309.4,206.5 309.3,206.2 283.3,278.6 306,336.6 432.7,-10.9 	"/>
	<g class="st1">
		<path d="M131.1,336.9L0.1,2.9c-0.7-1.8,0.2-3.8,2-4.5l0,0c1.8-0.7,3.8,0.2,4.5,2l124.2,316.8c1.2,3,5.4,3,6.5-0.1L253.3,0.4
			c0.7-1.8,2.7-2.7,4.5-2.1v0c1.8,0.7,2.7,2.7,2.1,4.5L137.6,336.8C136.5,339.8,132.2,339.9,131.1,336.9z"/>
	</g>
	<polygon class="st0" points="134.3,206.5 49.1,-10.9 2,-10.9 134.2,326.3 257.7,-10.9 213.9,-10.9 	"/>
	<path class="st1" d="M306.1,336.9c1.2,3,5.4,3,6.5-0.1L434.9,2.8c0.7-1.9-0.3-3.9-2.2-4.5c-1.8-0.6-3.8,0.6-4.4,2.3L312.4,317
		c-1.1,3-6.4,19.4-7.6,16.4"/>
	<g class="st1">
		<g>
			
				<ellipse transform="matrix(1.362625e-02 -0.9999 0.9999 1.362625e-02 95.0075 356.5022)" cx="228.2" cy="130.1" rx="2.8" ry="2.8"/>
			
				<ellipse transform="matrix(1.362625e-02 -0.9999 0.9999 1.362625e-02 84.4856 380.1339)" cx="234.9" cy="147.2" rx="2.8" ry="2.8"/>
		</g>
		<g>
			
				<ellipse transform="matrix(1.362625e-02 -0.9999 0.9999 1.362625e-02 73.9636 403.7655)" cx="241.6" cy="164.4" rx="2.8" ry="2.8"/>
			
				<ellipse transform="matrix(1.362625e-02 -0.9999 0.9999 1.362625e-02 63.4417 427.3971)" cx="248.4" cy="181.5" rx="2.8" ry="2.8"/>
		</g>
		<g>
			
				<ellipse transform="matrix(1.362625e-02 -0.9999 0.9999 1.362625e-02 52.9197 451.0287)" cx="255.1" cy="198.7" rx="2.8" ry="2.8"/>
			
				<ellipse transform="matrix(1.362625e-02 -0.9999 0.9999 1.362625e-02 42.3978 474.6603)" cx="261.8" cy="215.8" rx="2.8" ry="2.8"/>
		</g>
		<g>
			
				<ellipse transform="matrix(1.362625e-02 -0.9999 0.9999 1.362625e-02 31.8759 498.2919)" cx="268.5" cy="233" rx="2.8" ry="2.8"/>
			
				<ellipse transform="matrix(1.362625e-02 -0.9999 0.9999 1.362625e-02 21.3539 521.9235)" cx="275.2" cy="250.1" rx="2.8" ry="2.8"/>
		</g>
		<g>
			
				<ellipse transform="matrix(1.362625e-02 -0.9999 0.9999 1.362625e-02 10.832 545.5552)" cx="281.9" cy="267.3" rx="2.8" ry="2.8"/>
			<ellipse transform="matrix(1.362625e-02 -0.9999 0.9999 1.362625e-02 0.31 569.1868)" cx="288.7" cy="284.4" rx="2.8" ry="2.8"/>
		</g>
		<g>
			
				<ellipse transform="matrix(1.362625e-02 -0.9999 0.9999 1.362625e-02 -10.2119 592.8184)" cx="295.4" cy="301.6" rx="2.8" ry="2.8"/>
			
				<ellipse transform="matrix(1.362625e-02 -0.9999 0.9999 1.362625e-02 -20.7339 616.45)" cx="302.1" cy="318.7" rx="2.8" ry="2.8"/>
		</g>
	</g>
</g>
</svg>
