<?xml version="1.0" encoding="utf-8"?>
<!-- Generator: Adobe Illustrator 21.1.0, SVG Export Plug-In . SVG Version: 6.00 Build 0)  -->
<svg version="1.1" id="Layer_1" xmlns="http://www.w3.org/2000/svg" xmlns:xlink="http://www.w3.org/1999/xlink" x="0px" y="0px"
	 viewBox="0 0 503 518.3" style="enable-background:new 0 0 503 518.3;" xml:space="preserve">
<style type="text/css">
	.st0{fill:#E4EAF6;}
	.st1{fill:#E6AF78;}
	.st2{fill:#694B4B;}
	.st3{fill:#5A4146;}
	.st4{fill:#785550;}
	.st5{fill:#B4E1FA;}
	.st6{fill:#D29B6E;}
	.st7{fill:#A0D2F0;}
	.st8{fill:#F0C087;}
	.st9{fill:#B2E1E8;}
	.st10{fill:#99CECE;}
	.st11{fill:#342A00;}
	.st12{fill:#4E2500;}
	.st13{fill:#FFEA93;}
	.st14{fill:#FFD566;}
	.st15{fill:#A8B2FF;}
	.st16{fill:#8A9BFF;}
</style>
<path class="st0" d="M251.5,470.2c-112,0-203-91.1-203-203s91.1-203,203-203s203,91.1,203,203S363.5,470.2,251.5,470.2z M251.5,81.8
	C149.3,81.8,66.1,165,66.1,267.2s83.2,185.4,185.4,185.4s185.4-83.2,185.4-185.4S353.7,81.8,251.5,81.8z"/>
<g>
	<path class="st1" d="M286.2,63l1.5,5.9c0.2,0.7,0.8,1.2,1.5,1.2l0,0c0.8,0,1.5-0.6,1.6-1.4l0.8-6.1c0.2-1.6-1.1-3.1-2.7-3.1l0,0
		C287.1,59.6,285.8,61.3,286.2,63z"/>
	<path class="st2" d="M257.4,0c-45.1,0-40.1,54.9-39.9,94.6c0,1.5,0.8,2.9,2.1,3.6c5,3,18.7,10.1,37.8,10.1s32.8-7,37.8-10.1
		c1.3-0.8,2.1-2.1,2.1-3.6C297.6,54.9,302.6,0,257.4,0z"/>
	<path class="st3" d="M254.5,0.1c-42,2.4-37.2,55.6-37,94.5c0,1.5,0.8,2.9,2.1,3.6c5,3,18.7,10.1,37.8,10.1l11.4-79.8"/>
	<path class="st2" d="M257.4,0C231.8,0,230,31,230,31c14.8-2.5,23.9,3.7,38.8-2.5l-11.4,79.8c19.1,0,32.8-7,37.8-10.1
		c1.3-0.8,2.1-2.1,2.1-3.6C297.6,54.9,302.6,0,257.4,0z"/>
	<path class="st4" d="M297.4,94.6c0.2-34.2,3.9-79.5-23.7-91.5c-0.5,2.5-1.4,9.5,0.9,14c5.7,11.4,11.4,11.4,17.1,20
		c5.7,31.4-10.9,64.6-16.4,69.2l0,0c9.8-2.3,16.8-6,20-8C296.6,97.5,297.3,96.1,297.4,94.6z"/>
	<path class="st1" d="M300.6,103.3l-25.4-10.6c-2.1-0.9-3.5-3-3.5-5.3v-6.9h-28.5v6.9c0,2.3-1.4,4.4-3.5,5.3l-25.4,10.6
		c-3.2,1.3-5.3,4.4-5.3,7.9v11.4c0,3.1,2.6,5.7,5.7,5.7h85.5c3.1,0,5.7-2.6,5.7-5.7v-11.4C305.9,107.7,303.8,104.6,300.6,103.3z"/>
	<path class="st5" d="M300.6,103.3L276,93l-18.6,8l-18.6-8l-24.6,10.2c-3.2,1.3-5.3,4.4-5.3,7.9v11.4c0,3.1,2.6,5.7,5.7,5.7h85.5
		c3.1,0,5.7-2.6,5.7-5.7v-11.4C305.9,107.7,303.8,104.6,300.6,103.3z"/>
	<path class="st6" d="M271.7,80.5h-28.5v6.9c0,2.3-1.4,4.4-3.5,5.3l-4,1.7C266.1,102.1,271.7,80.5,271.7,80.5z"/>
	<g>
		<path class="st7" d="M222.9,114.3l-11.4-9.1c-1.5,1.6-2.5,3.7-2.5,6v11.4c0,3.1,2.6,5.7,5.7,5.7h11.4V121
			C226.1,118.4,224.9,115.9,222.9,114.3z"/>
		<path class="st7" d="M305.9,122.6v-11.4c0-2.3-0.9-4.4-2.4-5.9l-11.5,9.1c-2,1.6-3.2,4.1-3.2,6.7v7.3h11.4
			C303.3,128.3,305.9,125.7,305.9,122.6z"/>
		<path class="st7" d="M257.4,122.6L257.4,122.6c-1.6,0-2.9-1.3-2.9-2.9V101h5.7v18.7C260.3,121.3,259,122.6,257.4,122.6z"/>
		<path class="st7" d="M257.4,101.1l-16.3-12.2c-1-0.8-2.5-0.5-3.3,0.6l-3.2,4.8l10,14c0.8,1.1,2.3,1.3,3.3,0.5L257.4,101.1z"/>
		<path class="st7" d="M257.4,101.1l16.3-12.2c1-0.8,2.5-0.5,3.3,0.6l3.2,4.8l-10,14c-0.8,1.1-2.3,1.3-3.3,0.5L257.4,101.1z"/>
	</g>
	<path class="st8" d="M271.7,25.7c-14.3,14.3-42.2,2.9-42.2,25.7l1.8,16.8c0.3,3.8,2.5,7.1,5.8,8.9l16.2,9c2.6,1.4,5.7,1.4,8.3,0
		l16.2-9c3.3-1.8,5.5-5.2,5.8-8.9l2-20c0.1-1.4,0.2-2.8,0.1-4.3C284.7,36.6,274.5,31.4,271.7,25.7z"/>
	<path class="st1" d="M229.5,51.3l1.8,16.8c0.3,3.8,2.5,7.1,5.8,8.9l16.2,9c1.8,1,3.8,1.3,5.8,0.9l0,0c0,0-8.2-2.5-13.1-15.7
		c-1.5-4-3.6-25.4-1.8-28c3.5-5.2,23.2-5.7,29-15.3c-0.3-0.4-0.6-0.7-0.8-1.1c0,0,0-0.1-0.1-0.1c-0.3-0.4-0.5-0.8-0.7-1.1
		C257.4,39.9,229.5,28.5,229.5,51.3z"/>
	<path class="st7" d="M280.2,122.6h-11.4c-1.6,0-2.9,1.3-2.9,2.9v2.9H283v-2.9C283.1,123.9,281.8,122.6,280.2,122.6z"/>
</g>
<path class="st1" d="M286.9,453.1l1.5,5.9c0.2,0.7,0.8,1.2,1.5,1.2l0,0c0.8,0,1.5-0.6,1.6-1.4l0.8-6.1c0.2-1.6-1.1-3.1-2.7-3.1l0,0
	C287.8,449.7,286.5,451.4,286.9,453.1z"/>
<path class="st2" d="M258.1,390.1c-45.1,0-40.1,54.9-39.9,94.6c0,1.5,0.8,2.9,2.1,3.6c5,3,18.7,10.1,37.8,10.1s32.8-7,37.8-10.1
	c1.3-0.8,2.1-2.1,2.1-3.6C298.2,444.9,303.2,390.1,258.1,390.1z"/>
<path class="st3" d="M255.2,390.2c-42,2.4-37.2,55.6-37,94.5c0,1.5,0.8,2.9,2.1,3.6c5,3,18.7,10.1,37.8,10.1l11.4-79.8"/>
<path class="st2" d="M258.1,390.1c-25.7,0-27.4,31-27.4,31c14.8-2.5,23.9,3.7,38.8-2.5l-11.4,79.8c19.1,0,32.8-7,37.8-10.1
	c1.3-0.8,2.1-2.1,2.1-3.6C298.2,444.9,303.2,390.1,258.1,390.1z"/>
<path class="st4" d="M298,484.7c0.2-34.2,3.9-79.5-23.7-91.5c-0.5,2.5-1.4,9.5,0.9,14c5.7,11.4,11.4,11.4,17.1,20
	c5.7,31.4-10.9,64.6-16.4,69.2l0,0c9.8-2.3,16.8-6,20-8C297.2,487.5,298,486.2,298,484.7z"/>
<path class="st1" d="M301.3,493.3l-25.4-10.6c-2.1-0.9-3.5-3-3.5-5.3v-6.9h-28.5v6.9c0,2.3-1.4,4.4-3.5,5.3L215,493.3
	c-3.2,1.3-5.3,4.4-5.3,7.9v11.4c0,3.1,2.6,5.7,5.7,5.7h85.5c3.1,0,5.7-2.6,5.7-5.7v-11.4C306.5,497.8,304.5,494.7,301.3,493.3z"/>
<path class="st9" d="M301.3,493.3l-24.6-10.2l-18.6,8l-18.6-8l-24.6,10.2c-3.2,1.3-5.3,4.4-5.3,7.9v11.4c0,3.1,2.6,5.7,5.7,5.7h85.5
	c3.1,0,5.7-2.6,5.7-5.7v-11.4C306.5,497.8,304.5,494.7,301.3,493.3z"/>
<path class="st6" d="M272.3,470.6h-28.5v6.9c0,2.3-1.4,4.4-3.5,5.3l-4,1.7C266.7,492.1,272.3,470.6,272.3,470.6z"/>
<g>
	<path class="st10" d="M223.5,504.4l-11.4-9.1c-1.5,1.6-2.5,3.7-2.5,6v11.4c0,3.1,2.6,5.7,5.7,5.7h11.4V511
		C226.7,508.4,225.5,506,223.5,504.4z"/>
	<path class="st10" d="M306.5,512.6v-11.4c0-2.3-0.9-4.4-2.4-5.9l-11.5,9.1c-2,1.6-3.2,4.1-3.2,6.7v7.3h11.4
		C304,518.3,306.5,515.8,306.5,512.6z"/>
	<path class="st10" d="M258.1,512.6L258.1,512.6c-1.6,0-2.9-1.3-2.9-2.9V491h5.7v18.7C260.9,511.4,259.6,512.6,258.1,512.6z"/>
	<path class="st10" d="M258.1,491.1l-16.3-12.2c-1-0.8-2.5-0.5-3.3,0.6l-3.2,4.8l10,14c0.8,1.1,2.3,1.3,3.3,0.5L258.1,491.1z"/>
	<path class="st10" d="M258.1,491.1l16.3-12.2c1-0.8,2.5-0.5,3.3,0.6l3.2,4.8l-10,14c-0.8,1.1-2.3,1.3-3.3,0.5L258.1,491.1z"/>
</g>
<path class="st8" d="M272.3,415.7c-14.3,14.3-42.2,2.9-42.2,25.7l1.8,16.8c0.3,3.8,2.5,7.1,5.8,8.9l16.2,9c2.6,1.4,5.7,1.4,8.3,0
	l16.2-9c3.3-1.8,5.5-5.2,5.8-8.9l2-20c0.1-1.4,0.2-2.8,0.1-4.3C285.4,426.7,275.2,421.4,272.3,415.7z"/>
<path class="st1" d="M230.1,441.4l1.8,16.8c0.3,3.8,2.5,7.1,5.8,8.9l16.2,9c1.8,1,3.8,1.3,5.8,0.9l0,0c0,0-8.2-2.5-13.1-15.7
	c-1.5-4-3.6-25.4-1.8-28c3.5-5.2,23.2-5.7,29-15.3c-0.3-0.4-0.6-0.7-0.8-1.1c0,0,0-0.1-0.1-0.1c-0.3-0.4-0.5-0.8-0.7-1.1
	C258.1,430,230.1,418.6,230.1,441.4z"/>
<path class="st10" d="M280.9,512.6h-11.4c-1.6,0-2.9,1.3-2.9,2.9v2.9h17.1v-2.9C283.7,513.9,282.5,512.6,280.9,512.6z"/>
<g>
	<path class="st1" d="M483.3,266.1l1.5,5.9c0.2,0.7,0.8,1.2,1.5,1.2l0,0c0.8,0,1.5-0.6,1.6-1.4l0.8-6.1c0.2-1.6-1.1-3.1-2.7-3.1l0,0
		C484.2,262.7,482.9,264.3,483.3,266.1z"/>
	<path class="st2" d="M454.5,203c-45.1,0-40.1,54.9-39.9,94.6c0,1.5,0.8,2.9,2.1,3.6c5,3,18.7,10.1,37.8,10.1
		c19.1,0,32.8-7,37.8-10.1c1.3-0.8,2.1-2.1,2.1-3.6C494.7,257.9,499.7,203,454.5,203z"/>
	<path class="st11" d="M451.6,203.1c-42,2.4-37.2,55.6-37,94.5c0,1.5,0.8,2.9,2.1,3.6c5,3,18.7,10.1,37.8,10.1l11.4-79.8"/>
	<path class="st12" d="M454.5,203c-25.7,0-27.4,31-27.4,31c14.8-2.5,23.9,3.7,38.8-2.5l-11.4,79.8c19.1,0,32.8-7,37.8-10.1
		c1.3-0.8,2.1-2.1,2.1-3.6C494.7,257.9,499.7,203,454.5,203z"/>
	<path class="st11" d="M494.4,297.7c0.2-34.2,3.9-79.5-23.7-91.5c-0.5,2.5-1.4,9.5,0.9,14c5.7,11.4,11.4,11.4,17.1,20
		c5.7,31.4-10.9,64.6-16.4,69.2l0,0c9.8-2.3,16.8-6,20-8C493.7,300.5,494.4,299.2,494.4,297.7z"/>
	<path class="st1" d="M497.7,306.3l-25.4-10.6c-2.1-0.9-3.5-3-3.5-5.3v-6.9h-28.5v6.9c0,2.3-1.4,4.4-3.5,5.3l-25.4,10.6
		c-3.2,1.3-5.3,4.4-5.3,7.9v11.4c0,3.1,2.6,5.7,5.7,5.7h85.5c3.1,0,5.7-2.6,5.7-5.7v-11.4C503,310.8,500.9,307.6,497.7,306.3z"/>
	<path class="st13" d="M497.7,306.3l-24.6-10.2l-18.6,8l-18.6-8l-24.6,10.2c-3.2,1.3-5.3,4.4-5.3,7.9v11.4c0,3.1,2.6,5.7,5.7,5.7
		h85.5c3.1,0,5.7-2.6,5.7-5.7v-11.4C503,310.8,500.9,307.6,497.7,306.3z"/>
	<path class="st6" d="M468.8,283.6h-28.5v6.9c0,2.3-1.4,4.4-3.5,5.3l-4,1.7C463.2,305.1,468.8,283.6,468.8,283.6z"/>
	<g>
		<path class="st14" d="M420,317.3l-11.4-9.1c-1.5,1.6-2.5,3.7-2.5,6v11.4c0,3.1,2.6,5.7,5.7,5.7h11.4V324
			C423.2,321.4,422,319,420,317.3z"/>
		<path class="st14" d="M503,325.6v-11.4c0-2.3-0.9-4.4-2.4-5.9l-11.5,9.1c-2,1.6-3.2,4.1-3.2,6.7v7.3h11.4
			C500.4,331.3,503,328.8,503,325.6z"/>
		<path class="st14" d="M454.5,325.6L454.5,325.6c-1.6,0-2.9-1.3-2.9-2.9V304h5.7v18.7C457.4,324.3,456.1,325.6,454.5,325.6z"/>
		<path class="st14" d="M454.5,304.1l-16.3-12.2c-1-0.8-2.5-0.5-3.3,0.6l-3.2,4.8l10,14c0.8,1.1,2.3,1.3,3.3,0.5L454.5,304.1z"/>
		<path class="st14" d="M454.5,304.1l16.3-12.2c1-0.8,2.5-0.5,3.3,0.6l3.2,4.8l-10,14c-0.8,1.1-2.3,1.3-3.3,0.5L454.5,304.1z"/>
	</g>
	<path class="st8" d="M468.8,228.7c-14.3,14.3-42.2,2.9-42.2,25.7l1.8,16.8c0.3,3.8,2.5,7.1,5.8,8.9l16.2,9c2.6,1.4,5.7,1.4,8.3,0
		l16.2-9c3.3-1.8,5.5-5.2,5.8-8.9l2-20c0.1-1.4,0.2-2.8,0.1-4.3C481.8,239.7,471.6,234.4,468.8,228.7z"/>
	<path class="st1" d="M426.6,254.3l1.8,16.8c0.3,3.8,2.5,7.1,5.8,8.9l16.2,9c1.8,1,3.8,1.3,5.8,0.9l0,0c0,0-8.2-2.5-13.1-15.7
		c-1.5-4-3.6-25.4-1.8-28c3.5-5.2,23.2-5.7,29-15.3c-0.3-0.4-0.6-0.7-0.8-1.1c0,0,0-0.1-0.1-0.1c-0.3-0.4-0.5-0.8-0.7-1.1
		C454.5,242.9,426.6,231.5,426.6,254.3z"/>
	<path class="st14" d="M477.3,325.6h-11.4c-1.6,0-2.9,1.3-2.9,2.9v2.9h17.1v-2.9C480.2,326.9,478.9,325.6,477.3,325.6z"/>
</g>
<g>
	<path class="st1" d="M77.3,261.6l1.5,5.9c0.2,0.7,0.8,1.2,1.5,1.2l0,0c0.8,0,1.5-0.6,1.6-1.4l0.8-6.1c0.2-1.6-1.1-3.1-2.7-3.1l0,0
		C78.1,258.2,76.8,259.9,77.3,261.6z"/>
	<path class="st2" d="M48.5,198.5c-45.1,0-40.1,54.9-39.9,94.6c0,1.5,0.8,2.9,2.1,3.6c5,3,18.7,10.1,37.8,10.1s32.8-7,37.8-10.1
		c1.3-0.8,2.1-2.1,2.1-3.6C88.6,253.4,93.6,198.5,48.5,198.5z"/>
	<path class="st3" d="M45.6,198.7c-42,2.4-37.2,55.6-37,94.5c0,1.5,0.8,2.9,2.1,3.6c5,3,18.7,10.1,37.8,10.1L59.9,227"/>
	<path class="st2" d="M48.5,198.5c-25.7,0-27.4,31-27.4,31c14.8-2.5,23.9,3.7,38.8-2.5l-11.4,79.8c19.1,0,32.8-7,37.8-10.1
		c1.3-0.8,2.1-2.1,2.1-3.6C88.6,253.4,93.6,198.5,48.5,198.5z"/>
	<path class="st4" d="M88.4,293.2c0.2-34.2,3.9-79.5-23.7-91.5c-0.5,2.5-1.4,9.5,0.9,14c5.7,11.4,11.4,11.4,17.1,20
		c5.7,31.4-10.9,64.6-16.4,69.2l0,0c9.8-2.3,16.8-6,20-8C87.6,296,88.4,294.7,88.4,293.2z"/>
	<path class="st1" d="M91.7,301.8l-25.4-10.6c-2.1-0.9-3.5-3-3.5-5.3V279H34.2v6.9c0,2.3-1.4,4.4-3.5,5.3L5.3,301.8
		c-3.2,1.3-5.3,4.4-5.3,7.9v11.4c0,3.1,2.6,5.7,5.7,5.7h85.5c3.1,0,5.7-2.6,5.7-5.7v-11.4C96.9,306.3,94.9,303.2,91.7,301.8z"/>
	<path class="st15" d="M91.7,301.8l-24.6-10.2l-18.6,8l-18.6-8L5.3,301.8c-3.2,1.3-5.3,4.4-5.3,7.9v11.4c0,3.1,2.6,5.7,5.7,5.7h85.5
		c3.1,0,5.7-2.6,5.7-5.7v-11.4C96.9,306.3,94.9,303.2,91.7,301.8z"/>
	<path class="st6" d="M62.7,279.1H34.2v6.9c0,2.3-1.4,4.4-3.5,5.3l-4,1.7C57.1,300.6,62.7,279.1,62.7,279.1z"/>
	<g>
		<path class="st16" d="M13.9,312.9l-11.4-9.1c-1.5,1.6-2.5,3.7-2.5,6v11.4c0,3.1,2.6,5.7,5.7,5.7h11.4v-7.3
			C17.1,316.9,15.9,314.5,13.9,312.9z"/>
		<path class="st16" d="M96.9,321.1v-11.4c0-2.3-0.9-4.4-2.4-5.9L83,312.9c-2,1.6-3.2,4.1-3.2,6.7v7.3h11.4
			C94.4,326.8,96.9,324.3,96.9,321.1z"/>
		<path class="st16" d="M48.5,321.1L48.5,321.1c-1.6,0-2.9-1.3-2.9-2.9v-18.7h5.7v18.7C51.3,319.8,50,321.1,48.5,321.1z"/>
		<path class="st16" d="M48.5,299.6l-16.3-12.2c-1-0.8-2.5-0.5-3.3,0.6l-3.2,4.8l10,14c0.8,1.1,2.3,1.3,3.3,0.5L48.5,299.6z"/>
		<path class="st16" d="M48.5,299.6l16.3-12.2c1-0.8,2.5-0.5,3.3,0.6l3.2,4.8l-10,14c-0.8,1.1-2.3,1.3-3.3,0.5L48.5,299.6z"/>
	</g>
	<path class="st8" d="M62.7,224.2c-14.3,14.3-42.2,2.9-42.2,25.7l1.8,16.8c0.3,3.8,2.5,7.1,5.8,8.9l16.2,9c2.6,1.4,5.7,1.4,8.3,0
		l16.2-9c3.3-1.8,5.5-5.2,5.8-8.9l2-20c0.1-1.4,0.2-2.8,0.1-4.3C75.8,235.2,65.6,229.9,62.7,224.2z"/>
	<path class="st1" d="M20.5,249.9l1.8,16.8c0.3,3.8,2.5,7.1,5.8,8.9l16.2,9c1.8,1,3.8,1.3,5.8,0.9l0,0c0,0-8.2-2.5-13.1-15.7
		c-1.5-4-3.6-25.4-1.8-28c3.5-5.2,23.2-5.7,29-15.3c-0.3-0.4-0.6-0.7-0.8-1.1c0,0,0-0.1-0.1-0.1c-0.3-0.4-0.5-0.8-0.7-1.1
		C48.5,238.4,20.5,227,20.5,249.9z"/>
	<path class="st16" d="M71.3,321.1H59.9c-1.6,0-2.9,1.3-2.9,2.9v2.9h17.1V324C74.1,322.4,72.8,321.1,71.3,321.1z"/>
</g>
</svg>
