<?xml version="1.0" encoding="utf-8"?>
<!-- Generator: Adobe Illustrator 21.1.0, SVG Export Plug-In . SVG Version: 6.00 Build 0)  -->
<svg version="1.1" id="Layer_1" xmlns="http://www.w3.org/2000/svg" xmlns:xlink="http://www.w3.org/1999/xlink" x="0px" y="0px"
	 viewBox="0 0 512 512" style="enable-background:new 0 0 512 512;" xml:space="preserve">
<style type="text/css">
	.st0{fill:#EFF2FA;}
	.st1{fill:#D7DEED;}
	.st2{fill:#C7CFE2;}
	.st3{fill:#FFC36E;}
	.st4{fill:#FFD782;}
	.st5{fill:#FFFFFF;}
	.st6{fill:#707487;}
</style>
<path class="st0" d="M388.4,123.6H17.7c-9.8,0-17.7,7.9-17.7,17.7v353.1c0,9.8,7.9,17.7,17.7,17.7h370.8c9.8,0,17.7-7.9,17.7-17.7
	V141.2C406.1,131.5,398.2,123.6,388.4,123.6z"/>
<g>
	<path class="st1" d="M406.1,141.2c0-9.8-7.9-17.7-17.7-17.7h-11L212.1,288.9l-15.6,34.3l-10.7,23.6c-1.7,3.7,2.1,7.5,5.8,5.8
		l16.8-7.7l41.1-18.7l156.5-156.5V141.2z"/>
	<path class="st1" d="M114.8,194.2H44.1c-4.9,0-8.8-4-8.8-8.8l0,0c0-4.9,4-8.8,8.8-8.8h70.6c4.9,0,8.8,4,8.8,8.8l0,0
		C123.6,190.3,119.6,194.2,114.8,194.2z"/>
	<path class="st1" d="M361.9,194.2h-26.5c-4.9,0-8.8-4-8.8-8.8l0,0c0-4.9,4-8.8,8.8-8.8h26.5c4.9,0,8.8,4,8.8,8.8l0,0
		C370.8,190.3,366.8,194.2,361.9,194.2z"/>
</g>
<path class="st2" d="M300.1,194.2H150.1c-4.9,0-8.8-4-8.8-8.8l0,0c0-4.9,4-8.8,8.8-8.8h150.1c4.9,0,8.8,4,8.8,8.8l0,0
	C309,190.3,305,194.2,300.1,194.2z"/>
<g>
	<path class="st1" d="M150.1,282.5H44.1c-4.9,0-8.8-4-8.8-8.8l0,0c0-4.9,4-8.8,8.8-8.8h105.9c4.9,0,8.8,4,8.8,8.8l0,0
		C158.9,278.5,154.9,282.5,150.1,282.5z"/>
	<path class="st1" d="M105.9,326.6H44.1c-4.9,0-8.8-4-8.8-8.8l0,0c0-4.9,4-8.8,8.8-8.8h61.8c4.9,0,8.8,4,8.8,8.8l0,0
		C114.8,322.7,110.8,326.6,105.9,326.6z"/>
	<path class="st1" d="M361.9,326.6H220.7c-4.9,0-8.8-4-8.8-8.8l0,0c0-4.9,4-8.8,8.8-8.8h141.2c4.9,0,8.8,4,8.8,8.8l0,0
		C370.8,322.7,366.8,326.6,361.9,326.6z"/>
	<path class="st1" d="M361.9,282.5h-70.6c-4.9,0-8.8-4-8.8-8.8l0,0c0-4.9,4-8.8,8.8-8.8h70.6c4.9,0,8.8,4,8.8,8.8l0,0
		C370.8,278.5,366.8,282.5,361.9,282.5z"/>
</g>
<g>
	<path class="st2" d="M256,282.5h-70.6c-4.9,0-8.8-4-8.8-8.8l0,0c0-4.9,4-8.8,8.8-8.8H256c4.9,0,8.8,4,8.8,8.8l0,0
		C264.8,278.5,260.9,282.5,256,282.5z"/>
	<path class="st2" d="M176.6,238.3H44.1c-4.9,0-8.8-4-8.8-8.8l0,0c0-4.9,4-8.8,8.8-8.8h132.4c4.9,0,8.8,4,8.8,8.8l0,0
		C185.4,234.4,181.4,238.3,176.6,238.3z"/>
	<path class="st2" d="M167.7,326.6h-26.5c-4.9,0-8.8-4-8.8-8.8l0,0c0-4.9,4-8.8,8.8-8.8h26.5c4.9,0,8.8,4,8.8,8.8l0,0
		C176.6,322.7,172.6,326.6,167.7,326.6z"/>
</g>
<g>
	<path class="st1" d="M79.4,370.8H44.1c-4.9,0-8.8-4-8.8-8.8l0,0c0-4.9,4-8.8,8.8-8.8h35.3c4.9,0,8.8,4,8.8,8.8l0,0
		C88.3,366.8,84.3,370.8,79.4,370.8z"/>
	<path class="st1" d="M247.2,414.9h-35.3c-4.9,0-8.8-4-8.8-8.8l0,0c0-4.9,4-8.8,8.8-8.8h35.3c4.9,0,8.8,4,8.8,8.8l0,0
		C256,410.9,252,414.9,247.2,414.9z"/>
	<path class="st1" d="M361.9,414.9h-79.4c-4.9,0-8.8-4-8.8-8.8l0,0c0-4.9,4-8.8,8.8-8.8h79.4c4.9,0,8.8,4,8.8,8.8l0,0
		C370.8,410.9,366.8,414.9,361.9,414.9z"/>
	<path class="st1" d="M361.9,370.8h-35.3c-4.9,0-8.8-4-8.8-8.8l0,0c0-4.9,4-8.8,8.8-8.8h35.3c4.9,0,8.8,4,8.8,8.8l0,0
		C370.8,366.8,366.8,370.8,361.9,370.8z"/>
</g>
<path class="st2" d="M291.3,370.8H114.8c-4.9,0-8.8-4-8.8-8.8l0,0c0-4.9,4-8.8,8.8-8.8h176.6c4.9,0,8.8,4,8.8,8.8l0,0
	C300.1,366.8,296.2,370.8,291.3,370.8z"/>
<g>
	<path class="st1" d="M150.1,459H44.1c-4.9,0-8.8-4-8.8-8.8l0,0c0-4.9,4-8.8,8.8-8.8h105.9c4.9,0,8.8,4,8.8,8.8l0,0
		C158.9,455.1,154.9,459,150.1,459z"/>
	<path class="st1" d="M361.9,459h-61.8c-4.9,0-8.8-4-8.8-8.8l0,0c0-4.9,4-8.8,8.8-8.8h61.8c4.9,0,8.8,4,8.8,8.8l0,0
		C370.8,455.1,366.8,459,361.9,459z"/>
</g>
<g>
	<path class="st2" d="M264.8,459h-79.4c-4.9,0-8.8-4-8.8-8.8l0,0c0-4.9,4-8.8,8.8-8.8h79.4c4.9,0,8.8,4,8.8,8.8l0,0
		C273.7,455.1,269.7,459,264.8,459z"/>
	<path class="st2" d="M176.6,414.9H44.1c-4.9,0-8.8-4-8.8-8.8l0,0c0-4.9,4-8.8,8.8-8.8h132.4c4.9,0,8.8,4,8.8,8.8l0,0
		C185.4,410.9,181.4,414.9,176.6,414.9z"/>
</g>
<path class="st1" d="M361.9,238.3H211.9c-4.9,0-8.8-4-8.8-8.8l0,0c0-4.9,4-8.8,8.8-8.8h150.1c4.9,0,8.8,4,8.8,8.8l0,0
	C370.8,234.4,366.8,238.3,361.9,238.3z"/>
<rect x="167.5" y="136" transform="matrix(0.7071 -0.7071 0.7071 0.7071 -4.7951 286.969)" class="st3" width="353.1" height="26.5"/>
<rect x="186.2" y="154.8" transform="matrix(0.7071 -0.7071 0.7071 0.7071 -12.5516 305.6937)" class="st4" width="353.1" height="26.5"/>
<path class="st0" d="M496.9,52.5l-37.5-37.5L472,2.6c3.4-3.4,9-3.4,12.5,0l25,25c3.4,3.4,3.4,9,0,12.5L496.9,52.5z"/>
<g>
	<path class="st1" d="M478.2,33.8l-18.7-18.7L472,2.6c3.4-3.4,9-3.4,12.5,0l12.5,12.5L478.2,33.8z"/>
	<polygon class="st1" points="198.6,313.4 228.5,283.5 209.8,264.8 191.1,305.9 	"/>
</g>
<polygon class="st5" points="206.1,320.9 247.2,302.2 228.5,283.5 198.6,313.4 "/>
<path class="st6" d="M189.3,328.5l23.6-10.7l-18.7-18.7l-10.7,23.6C181.8,326.4,185.6,330.2,189.3,328.5z"/>
</svg>
