<?xml version="1.0" encoding="utf-8"?>
<!-- Generator: Adobe Illustrator 21.1.0, SVG Export Plug-In . SVG Version: 6.00 Build 0)  -->
<svg version="1.1" id="Layer_1" xmlns="http://www.w3.org/2000/svg" xmlns:xlink="http://www.w3.org/1999/xlink" x="0px" y="0px"
	 viewBox="0 0 370.8 512" style="enable-background:new 0 0 370.8 512;" xml:space="preserve">
<style type="text/css">
	.st0{fill:#C3E678;}
	.st1{fill:#EFF2FA;}
	.st2{fill:#FFD782;}
	.st3{fill:#FF6464;}
	.st4{fill:#FFC36E;}
	.st5{opacity:0.97;}
	.st6{fill:#AFB9D2;}
	.st7{fill:#C7CFE2;}
	.st8{fill:#D7DEED;}
</style>
<path class="st0" d="M353.1,494.3H17.7c-9.8,0-17.7-7.9-17.7-17.7v-459C0,7.9,7.9,0,17.7,0h335.4c9.8,0,17.7,7.9,17.7,17.7v459
	C370.8,486.4,362.9,494.3,353.1,494.3z"/>
<path class="st1" d="M335.5,423.7V70.6c-19.5,0-35.3-15.8-35.3-35.3H70.6c0,19.5-15.8,35.3-35.3,35.3v353.1
	c19.5,0,35.3,15.8,35.3,35.3h229.5C300.2,439.5,316,423.7,335.5,423.7z"/>
<path class="st2" d="M300.2,467.9H70.6c-4.9,0-8.8-4-8.8-8.8c0-14.6-11.9-26.5-26.5-26.5c-4.9,0-8.8-4-8.8-8.8V70.6
	c0-4.9,4-8.8,8.8-8.8c14.6,0,26.5-11.9,26.5-26.5c0-4.9,4-8.8,8.8-8.8h229.5c4.9,0,8.8,4,8.8,8.8c0,14.6,11.9,26.5,26.5,26.5
	c4.9,0,8.8,4,8.8,8.8v353.1c0,4.9-4,8.8-8.8,8.8c-14.6,0-26.5,11.9-26.5,26.5C309,463.9,305,467.9,300.2,467.9z M78.6,450.2h213.6
	c3.5-17.3,17.2-30.9,34.4-34.4V78.6c-17.2-3.6-30.9-17.2-34.4-34.5H78.6C75.1,61.4,61.4,75,44.2,78.6v337.2
	C61.4,419.3,75.1,432.9,78.6,450.2z"/>
<g>
	<path class="st3" d="M310.7,497.8l-20.6-5.1l-12.6,17c-2.7,3.7-8.4,2.8-9.9-1.5l-29.2-81.3l49.8-17.9l29.3,81.4
		C319,494.6,315.1,498.9,310.7,497.8z"/>
	<path class="st3" d="M183.7,497.8l20.6-5.1l12.6,17c2.7,3.7,8.4,2.8,9.9-1.5l29.3-81.4L206.2,409l-29.3,81.4
		C175.4,494.6,179.2,498.9,183.7,497.8z"/>
</g>
<circle class="st2" cx="247.2" cy="379.6" r="61.8"/>
<circle class="st4" cx="247.2" cy="379.6" r="44.1"/>
<path class="st2" d="M264.8,141.2H106c-4.9,0-8.8-4-8.8-8.8l0,0c0-4.9,4-8.8,8.8-8.8h158.9c4.9,0,8.8,4,8.8,8.8l0,0
	C273.7,137.3,269.7,141.2,264.8,141.2z"/>
<g class="st5">
	<path class="st6" d="M114.8,211.9H97.1c-4.9,0-8.8-4-8.8-8.8l0,0c0-4.9,4-8.8,8.8-8.8h17.7c4.9,0,8.8,4,8.8,8.8l0,0
		C123.6,207.9,119.7,211.9,114.8,211.9z"/>
</g>
<g class="st5">
	<path class="st7" d="M273.7,211.9H150.1c-4.9,0-8.8-4-8.8-8.8l0,0c0-4.9,4-8.8,8.8-8.8h123.6c4.9,0,8.8,4,8.8,8.8l0,0
		C282.5,207.9,278.6,211.9,273.7,211.9z"/>
</g>
<g class="st5">
	<path class="st6" d="M114.8,247.2H97.1c-4.9,0-8.8-4-8.8-8.8l0,0c0-4.9,4-8.8,8.8-8.8h17.7c4.9,0,8.8,4,8.8,8.8l0,0
		C123.6,243.2,119.7,247.2,114.8,247.2z"/>
</g>
<g class="st5">
	<path class="st7" d="M273.7,247.2H150.1c-4.9,0-8.8-4-8.8-8.8l0,0c0-4.9,4-8.8,8.8-8.8h123.6c4.9,0,8.8,4,8.8,8.8l0,0
		C282.5,243.2,278.6,247.2,273.7,247.2z"/>
</g>
<g class="st5">
	<path class="st6" d="M114.8,282.5H97.1c-4.9,0-8.8-4-8.8-8.8l0,0c0-4.9,4-8.8,8.8-8.8h17.7c4.9,0,8.8,4,8.8,8.8l0,0
		C123.6,278.5,119.7,282.5,114.8,282.5z"/>
</g>
<g class="st5">
	<path class="st7" d="M273.7,282.5H150.1c-4.9,0-8.8-4-8.8-8.8l0,0c0-4.9,4-8.8,8.8-8.8h123.6c4.9,0,8.8,4,8.8,8.8l0,0
		C282.5,278.5,278.6,282.5,273.7,282.5z"/>
</g>
<g>
	<path class="st8" d="M158.9,361.9H97.1c-4.9,0-8.8-4-8.8-8.8l0,0c0-4.9,4-8.8,8.8-8.8h61.8c4.9,0,8.8,4,8.8,8.8l0,0
		C167.7,358,163.8,361.9,158.9,361.9z"/>
	<path class="st8" d="M132.4,397.2H97.1c-4.9,0-8.8-4-8.8-8.8l0,0c0-4.9,4-8.8,8.8-8.8h35.3c4.9,0,8.8,4,8.8,8.8l0,0
		C141.3,393.3,137.3,397.2,132.4,397.2z"/>
</g>
<path class="st2" d="M238.4,105.9h-106c-4.9,0-8.8-4-8.8-8.8l0,0c0-4.9,4-8.8,8.8-8.8h106c4.9,0,8.8,4,8.8,8.8l0,0
	C247.2,102,243.2,105.9,238.4,105.9z"/>
</svg>
