<?xml version="1.0" encoding="UTF-8" standalone="no"?>
<svg
   xmlns:dc="http://purl.org/dc/elements/1.1/"
   xmlns:cc="http://creativecommons.org/ns#"
   xmlns:rdf="http://www.w3.org/1999/02/22-rdf-syntax-ns#"
   xmlns:svg="http://www.w3.org/2000/svg"
   xmlns="http://www.w3.org/2000/svg"
   viewBox="0 0 290.66666 142.14667"
   height="142.14667"
   width="290.66666"
   xml:space="preserve"
   id="svg2"
   version="1.1"><metadata
     id="metadata8"><rdf:RDF><cc:Work
         rdf:about=""><dc:format>image/svg+xml</dc:format><dc:type
           rdf:resource="http://purl.org/dc/dcmitype/StillImage" /></cc:Work></rdf:RDF></metadata><defs
     id="defs6" /><g
     transform="matrix(1.3333333,0,0,-1.3333333,0,142.14667)"
     id="g10"><g
       transform="scale(0.1)"
       id="g12"><path
         id="path14"
         style="fill:#ab1b2c;fill-opacity:1;fill-rule:nonzero;stroke:none"
         d="m 1040.45,166.656 h -12.37 c -2.9,0 -4.18,-1.777 -4.18,-4.394 V 47.0703 c 0,-28.3008 0.67,-38.91014 7.8,-38.91014 h 15.56 V 0 h -63.862 v 8.16016 h 12.95 c 3.086,0 4.102,2.03124 4.102,4.53124 V 148.316 l -0.477,0.528 L 938.262,2.69141 c -0.574,-1.42188 -1.184,-1.91016 -4.949,-1.91016 -1.426,0 -2.434,3.33984 -4.055,6.84766 L 864.324,145.211 863.809,144.625 V 37.2188 c 0,-12.5586 0.515,-29.05864 8.82,-29.05864 h 14.656 V 0 h -50.547 v 8.16016 h 10.34 c 3.281,0 6.203,1.51953 6.203,5.46874 V 134.879 c 0,22.617 -2.402,31.777 -15.429,31.777 h -8.426 v 8.418 h 44.051 l 66.55,-137.5935 61.013,137.5935 h 39.41 v -8.418" /><path
         id="path16"
         style="fill:#ab1b2c;fill-opacity:1;fill-rule:nonzero;stroke:none"
         d="m 1138.29,47.0508 c 0,-28.2813 0.57,-38.87111 7.64,-38.87111 h 15.8 V 0.0195313 h -63.95 V 8.17969 h 12.94 c 3.1,0 4.21,1.99221 4.21,4.51171 V 127.906 c 0,28.301 -0.58,38.75 -7.84,38.75 h -16.27 v 8.399 h 64.03 v -8.399 h -12.36 c -3.02,0 -4.2,-1.758 -4.2,-4.375 V 47.0508" /><path
         id="path18"
         style="fill:#ab1b2c;fill-opacity:1;fill-rule:nonzero;stroke:none"
         d="m 1286.07,47.0508 c 0,-28.2813 0.41,-38.87111 7.66,-38.87111 h 21.24 V 0.0195313 h -77.13 V 8.17969 h 20.68 c 2.92,0 4.17,1.99221 4.17,4.51171 V 165.113 h -7.02 c -32.12,0 -47.82,-5.84 -50.58,-14.101 -0.6,-1.856 -1.7,-3.77 -3.89,-3.77 -1.6,0 -3.03,0.762 -3.03,2.598 0,1.836 3.86,13.867 7.75,25.215 h 136.89 c 3.84,-11.348 7.79,-23.379 7.79,-25.215 0,-1.836 -1.41,-2.598 -3.1,-2.598 -2.11,0 -3.28,1.914 -3.78,3.77 -2.87,8.261 -18.57,14.101 -50.75,14.101 h -6.9 V 47.0508" /><path
         id="path20"
         style="fill:#ab1b2c;fill-opacity:1;fill-rule:nonzero;stroke:none"
         d="M 0.0195313,319.664 V 295.719 H 2180 v 23.945 H 0.0195313" /><path
         id="path22"
         style="fill:#ab1b2c;fill-opacity:1;fill-rule:nonzero;stroke:none"
         d="m 1262.26,471.559 -1.37,0.859 c -3.69,2.344 -7.29,4.727 -10.81,7.207 -2.51,1.777 -5.03,3.555 -7.47,5.391 -2.33,1.777 -4.45,3.457 -6.55,5.156 -28.99,-16.133 -62.59,-24.57 -99.8,-24.57 -110.7,0 -236.436,90.078 -236.436,302.089 0,170.762 85.379,267.399 212.026,267.399 50.52,0 104.15,-18.82 147.53,-59.371 0.22,-0.196 0.41,-0.391 0.62,-0.586 4.83,-4.551 9.56,-9.278 14.12,-14.375 0.61,-0.664 1.17,-1.387 1.76,-2.07 l 3.63,-4.141 -0.05,-0.078 c 40.98,-49.082 68.83,-121.758 68.83,-221.485 0,-0.351 -0.03,-0.703 -0.03,-1.054 h -0.02 c -0.15,-77.969 -18.48,-139.961 -50.2,-184.629 9.61,-10.977 19.88,-20.918 30.93,-29.531 56.55,53.945 91.74,129.726 98.01,214.16 h -0.07 c 0.73,9.023 1.13,18.144 1.13,27.324 0,102.871 -33.83,187.07 -96.99,241.056 l -0.02,-0.02 -4.3,3.51 c -8.55,6.96 -17.57,13.36 -26.82,19.05 l -5.3,3.26 c -44.09,25.76 -98.42,39.94 -162.12,39.94 -186.697,0 -312.4,-147.304 -312.4,-324.609 0,-182.949 106.953,-306.796 295.53,-306.796 55.24,0 109.67,14.863 148.3,35.898 -0.55,0.352 -1.12,0.664 -1.66,1.016" /><path
         id="path24"
         style="fill:#ab1b2c;fill-opacity:1;fill-rule:nonzero;stroke:none"
         d="m 127.852,521.969 c 28.378,0 38.859,0.547 38.859,7.734 v 21.192 h 8.262 v -77.149 h -8.262 v 20.645 c 0,3.047 -1.926,4.16 -4.414,4.16 H 9.92188 v -6.895 c 0,-32.226 5.78122,-47.929 14.06252,-50.703 1.6523,-0.527 3.8476,-1.621 3.8476,-3.848 0,-1.66 -0.8281,-3.046 -2.7539,-3.046 -1.6523,0 -13.7812,3.886 -25.0781,7.734 v 136.934 c 11.2969,3.847 23.4258,7.714 25.0781,7.714 1.9258,0 2.7539,-1.367 2.7539,-3.027 0,-2.207 -2.1953,-3.301 -3.8476,-3.867 C 15.7031,576.793 9.92188,561.09 9.92188,528.863 v -6.894 H 127.852 v 0" /><path
         id="path26"
         style="fill:#ab1b2c;fill-opacity:1;fill-rule:nonzero;stroke:none"
         d="m 84.5898,701.305 h 43.2622 c 28.378,0 38.859,0.547 38.859,7.695 v 15.723 h 8.262 v -63.926 h -8.262 v 12.949 c 0,3.027 -1.926,4.141 -4.414,4.141 H 47.1289 c -28.3789,0 -38.85937,-0.547 -38.85937,-7.715 v -16.27 H 0 v 63.926 h 8.26953 v -12.422 c 0,-3.027 1.94527,-4.101 4.41407,-4.101 H 74.6758 V 791.93 H 47.1289 C 18.75,791.93 8.26953,791.383 8.26953,784.234 V 767.965 H 0 v 63.926 h 8.26953 v -12.403 c 0,-3.027 1.94527,-4.14 4.41407,-4.14 H 127.852 c 28.378,0 38.859,0.586 38.859,7.715 v 15.722 h 8.262 v -63.926 h -8.262 v 12.95 c 0,3.027 -1.926,4.121 -4.414,4.121 H 84.5898 v -90.625 0" /><path
         id="path28"
         style="fill:#ab1b2c;fill-opacity:1;fill-rule:nonzero;stroke:none"
         d="m 47.1289,945.133 c -28.3789,0 -38.85937,-0.586 -38.85937,-7.735 v -16.25 H 0 v 138.032 c 24.2461,-2.47 25.0781,-3.3 25.6367,-5.79 0,-2.18 -1.3906,-2.73 -4.9648,-3.3 -3.3008,-0.82 -10.75002,-5.5 -10.75002,-49.04 v -26.991 c 0,-4.161 2.21872,-5.508 4.97262,-5.508 h 59.7813 v 31.929 c 0,28.4 -1.1016,36.94 -9.375,36.94 h -10.75 v 7.42 h 46.5702 v -7.42 h -9.6483 c -7.4297,0 -7.711,-2.76 -7.711,-34.16 v -34.709 h 47.1173 c 34.18,0 34.18,3.027 34.18,11.289 v 18.437 c 0,46.873 -6.895,57.603 -14.61,62.283 -1.379,0.82 -3.039,1.37 -3.039,3.3 0,1.1 1.66,2.21 3.039,2.21 2.481,0 13.496,-3.57 24.524,-6.89 V 928.043 h -8.262 v 12.93 c 0,3.027 -1.926,4.16 -4.414,4.16 H 47.1289 v 0" /><path
         id="path30"
         style="fill:#ab1b2c;fill-opacity:1;fill-rule:nonzero;stroke:none"
         d="m 802.805,945.23 c -8.457,0 -9.407,13.79 -11.282,27.872 -4.687,33.808 -82.636,59.158 -138.984,59.158 -172.781,0 -272.344,-131.444 -272.344,-294.862 0,-174.668 131.493,-269.531 247.95,-269.531 84.5,0 177.48,38.516 184.043,91.094 0.925,7.5 1.875,16.934 12.214,16.934 7.524,0 9.399,-6.602 9.399,-12.227 0,-8.457 -1.875,-22.559 -5.649,-81.699 -62.918,-30.996 -143.679,-47.91 -215.984,-47.91 -186.887,0 -317.41,97.695 -317.41,292.988 0,201.914 168.094,339.023 363.426,339.023 57.285,0 110.808,-12.19 161.535,-31.93 -6.606,-76.077 -2.778,-88.91 -16.914,-88.91 v 0" /><path
         id="path32"
         style="fill:#ab1b2c;fill-opacity:1;fill-rule:nonzero;stroke:none"
         d="m 1883.05,760.777 c 22.24,-8.711 47.39,-12.558 72.56,-12.558 80.28,0 142.16,45.449 142.16,127.676 0,48.359 -18.37,144.125 -177.95,144.125 -29.04,0 -38.7,-0.98 -36.77,-15.49 V 760.777 Z m -166.36,294.063 h 270.83 c 85.11,0 192.5,-43.54 192.5,-166.387 0,-85.117 -80.29,-169.258 -211.85,-169.258 -30.93,0 -63.83,3.868 -85.12,12.559 V 606.031 c 0,-99.629 1.94,-136.386 27.09,-136.386 h 55.13 v -29.024 h -224.39 v 29.024 h 45.45 c 10.63,0 14.49,6.777 14.49,15.468 V 889.43 c 0,99.629 -1.92,136.41 -27.08,136.41 h -57.05 v 29 0" /><path
         id="path34"
         style="fill:#ab1b2c;fill-opacity:1;fill-rule:nonzero;stroke:none"
         d="m 1452.04,1065.66 c -55.21,0 -104.98,-13.09 -147.82,-35.82 9.72,-6 18.93,-12.56 27.68,-19.69 28.91,16.06 62.39,24.55 99.49,24.55 110.71,0 236.43,-90.075 236.43,-302.106 0,-170.742 -85.38,-267.364 -212.03,-267.364 -37.83,0 -77.39,10.723 -113.12,33.067 -0.04,-0.02 -0.08,-0.039 -0.11,-0.059 -20.97,13.125 -40.57,30.313 -57.73,51.817 -0.17,0.215 -0.35,0.39 -0.5,0.605 -0.15,0.195 -0.3,0.352 -0.44,0.547 -1.66,2.09 -3.26,4.277 -4.87,6.445 -0.89,1.231 -1.82,2.403 -2.69,3.653 -34.4,48.457 -56.98,116.269 -56.98,205.996 0,78.574 18.32,141.172 50.17,186.152 -0.52,0.586 -0.98,1.25 -1.51,1.836 -9.04,10.098 -18.92,19.199 -29.39,27.305 -62.58,-59.746 -99,-146.27 -99,-241.563 0,-69.199 15.42,-129.843 44.69,-178.613 h -0.05 c 4.28,-7.168 8.87,-14.023 13.76,-20.664 0.01,-0.02 0.03,-0.078 0.06,-0.117 0.02,0 0.03,0 0.03,0 3.87,-5.254 8.07,-10.235 12.33,-15.117 0,0 0,0 0.02,-0.02 2.43,-2.832 4.96,-5.566 7.53,-8.281 0.01,-0.02 0.03,-0.039 0.03,-0.039 2.15,-2.305 4.42,-4.473 6.65,-6.66 2.33,-2.305 4.54,-4.707 6.98,-6.895 0.01,-0.02 0.01,-0.02 0.01,-0.02 0.07,-0.078 0.15,-0.117 0.22,-0.175 5,-4.532 10.29,-8.789 15.71,-12.891 2.35,-1.777 4.78,-3.496 7.21,-5.215 3.41,-2.402 6.91,-4.707 10.46,-6.972 2.92,-1.836 5.8,-3.692 8.81,-5.43 5.38,-3.106 10.93,-6.074 16.62,-8.848 0,0 0.02,-0.019 0.04,-0.019 0,0 0.01,0 0.03,-0.02 1.25,-0.605 2.43,-1.25 3.7,-1.855 7.27,-3.34 14.7,-6.465 22.41,-9.278 0.54,-0.175 1.09,-0.39 1.64,-0.586 0,-0.019 0.01,-0.019 0.01,-0.019 7.82,-2.793 15.91,-5.274 24.19,-7.5 0.3,-0.059 0.55,-0.176 0.84,-0.234 v 0.019 c 27.91,-7.344 58.46,-11.309 91.6,-11.309 186.72,0 312.42,147.286 312.42,324.61 0,182.949 -106.95,306.777 -295.53,306.777" /></g></g></svg>